<svg width="375" height="569" viewBox="0 0 375 569" fill="none" xmlns="http://www.w3.org/2000/svg">
<path d="M311 369.346C311 424.574 262.31 469.346 202.25 469.346V369.346H311Z" fill="#8C63A9"/>
<path d="M202.25 569.346C142.19 569.346 93.5 524.574 93.5 469.346H202.25V569.346Z" fill="#8C63A9"/>
<path d="M419.75 469.346C419.75 524.574 371.06 569.346 311 569.346V469.346H419.75Z" fill="#F2EDF4"/>
<path d="M202.25 -31C202.25 24.228 153.56 69 93.5 69L93.5 -31L202.25 -31Z" fill="#8C63A9"/>
<path d="M202.25 469.346C142.188 469.346 93.5 424.574 93.5 369.346H202.25V469.346Z" fill="#251450"/>
<path d="M202.25 420.38C171.598 420.38 146.75 397.532 146.75 369.346H202.25V420.38Z" fill="#38C881"/>
<path d="M311 569.346C250.938 569.346 202.25 524.574 202.25 469.346H311V569.346Z" fill="#38C881"/>
<path d="M311 520.38C280.348 520.38 255.5 497.532 255.5 469.346H311V520.38Z" fill="#77BED0"/>
<path d="M39.125 269.346V219.346C39.125 191.732 14.7802 169.346 -15.25 169.346V219.346C-15.25 246.96 9.09477 269.346 39.125 269.346Z" fill="#251450"/>
<path d="M202.25 219H256.625C286.655 219 311 196.614 311 169H256.625C226.595 169 202.25 191.386 202.25 219Z" fill="#251450"/>
<path d="M147.875 269H202.25C232.28 269 256.625 246.614 256.625 219H202.25C172.22 219 147.875 241.386 147.875 269Z" fill="#38C881"/>
<path d="M202.25 -31V69C202.25 124.228 250.94 169 311 169V69C311 13.772 262.31 -31 202.25 -31Z" fill="#8C63A9"/>
<path d="M256.625 69.3457V118.921C256.625 146.579 280.97 169.001 311 169.001V119.425C311 91.7663 286.655 69.3457 256.625 69.3457Z" fill="#251450"/>
<path d="M93.5 569.346L93.5 469.346C93.5 414.118 44.8104 369.346 -15.25 369.346L-15.25 469.346C-15.25 524.574 33.4395 569.346 93.5 569.346Z" fill="#F2EDF4"/>
<path d="M39.125 469L39.125 419.424C39.125 391.766 14.7802 369.345 -15.25 369.345L-15.25 418.92C-15.25 446.579 9.09477 469 39.125 469Z" fill="#F7CA15"/>
<path d="M93.5 -31V69C93.5 124.228 44.8104 169 -15.25 169V69C-15.25 13.772 33.4395 -31 93.5 -31Z" fill="#F2EDF4"/>
<path d="M39.125 69.6895V119.265C39.125 146.923 14.7802 169.345 -15.25 169.345V119.769C-15.25 92.11 9.09477 69.6895 39.125 69.6895Z" fill="#77BED0"/>
<path d="M528.5 69H419.75C359.69 69 311 113.772 311 169H419.75C479.81 169 528.5 124.228 528.5 69Z" fill="#251450"/>
<path d="M419.75 119H365.65C335.468 119 311 141.386 311 169H365.1C395.283 169 419.75 146.614 419.75 119Z" fill="#F2EDF4"/>
<path d="M528.5 269.346H419.75C359.69 269.346 311 314.118 311 369.346H419.75C479.81 369.346 528.5 324.574 528.5 269.346Z" fill="#F2EDF4"/>
<path d="M419.375 319.346H365.461C335.383 319.346 311 341.732 311 369.346H364.914C394.993 369.346 419.375 346.96 419.375 319.346Z" fill="#251450"/>
<path d="M202.25 269.346H93.5C33.4395 269.346 -15.25 314.118 -15.25 369.346H93.5C153.56 369.346 202.25 324.574 202.25 269.346Z" fill="#F2EDF4"/>
<path d="M93.125 319.346H39.2114C9.13347 319.346 -15.25 341.732 -15.25 369.346H38.6635C68.7426 369.346 93.125 346.96 93.125 319.346Z" fill="#8C63A9"/>
<path d="M311 369.346H419.75C479.81 369.346 528.5 414.118 528.5 469.346H419.75C359.69 469.346 311 424.574 311 369.346Z" fill="#251450"/>
<path d="M267.125 242.621C267.125 234.337 274.429 227.621 283.437 227.621C292.446 227.621 299.75 234.337 299.75 242.621C299.75 250.905 292.446 257.621 283.437 257.621C274.429 257.621 267.125 250.905 267.125 242.621Z" fill="#8C63A9"/>
<path d="M158.375 194.346C158.375 186.062 165.679 179.346 174.687 179.346C183.696 179.346 191 186.062 191 194.346C191 202.63 183.696 209.346 174.687 209.346C165.679 209.346 158.375 202.63 158.375 194.346Z" fill="#38C881"/>
<path d="M296.375 443.827C296.375 436.4 302.923 430.379 311 430.379C319.077 430.379 325.625 436.4 325.625 443.827C325.625 451.255 319.077 457.275 311 457.275C302.923 457.275 296.375 451.255 296.375 443.827Z" fill="#8C63A9"/>
<path d="M311 219C311 191.386 335.345 169 365.375 169C395.405 169 419.75 191.386 419.75 219C419.75 246.614 395.405 269 365.375 269H311V219Z" fill="#8C63A9"/>
<path d="M311 243.483C311 229.2 323.592 217.621 339.126 217.621C354.658 217.621 367.25 229.2 367.25 243.483C367.25 257.766 354.658 269.345 339.126 269.345H311V243.483Z" fill="#F7CA15"/>
<path d="M311 19C311 46.614 335.345 69 365.375 69C395.405 69 419.75 46.614 419.75 19C419.75 -8.614 395.405 -31 365.375 -31H311V19Z" fill="#38C881"/>
<path d="M311 -5.13742C311 9.14533 323.592 20.7241 339.126 20.7241C354.658 20.7241 367.25 9.14533 367.25 -5.13742C367.25 -19.4212 354.658 -31 339.126 -31H311V-5.13742Z" fill="#38C881"/>
<path d="M93.5 119C93.5 91.386 117.845 69 147.875 69C177.905 69 202.25 91.386 202.25 119C202.25 146.614 177.905 169 147.875 169C117.845 169 93.5 146.614 93.5 119Z" fill="#F7CA15"/>
<path d="M117.875 119.173C117.875 103.842 131.391 91.4141 148.062 91.4141C164.734 91.4141 178.25 103.842 178.25 119.173C178.25 134.503 164.734 146.931 148.062 146.931C131.391 146.931 117.875 134.503 117.875 119.173Z" fill="#251450"/>
<path d="M311 319.346C311 346.96 286.739 369.346 256.812 369.346C226.886 369.346 202.625 346.96 202.625 319.346C202.625 291.732 226.886 269.346 256.812 269.346H311V319.346Z" fill="#77BED0"/>
<path d="M93.5 269.346C123.53 269.346 147.875 246.96 147.875 219.346C147.875 191.732 123.53 169.346 93.5 169.346C63.4698 169.346 39.125 191.732 39.125 219.346V269.346H93.5Z" fill="#8C63A9"/>
</svg>
