<svg width="303" height="171" viewBox="0 0 303 171" fill="none" xmlns="http://www.w3.org/2000/svg">
<path d="M241.496 66.5898H289.618H302.5L292.563 73.689V87.6543C292.563 89.2649 291.245 90.5703 289.618 90.5703H241.496C239.87 90.5703 238.551 89.2649 238.551 87.6543V69.5058C238.551 67.8952 239.87 66.5898 241.496 66.5898Z" fill="#F5F5F5"/>
<path d="M244.039 76.4614C244.039 76.5208 253.24 76.5674 264.589 76.5674C275.939 76.5674 285.14 76.5208 285.14 76.4614C285.14 76.4021 275.939 76.3555 264.589 76.3555C253.24 76.3555 244.039 76.4021 244.039 76.4614Z" fill="#E0E0E0"/>
<path d="M244.039 81.8247C244.039 81.884 253.24 81.9307 264.589 81.9307C275.939 81.9307 285.14 81.884 285.14 81.8247C285.14 81.7654 275.939 81.7188 264.589 81.7188C253.24 81.7188 244.039 81.7696 244.039 81.8247Z" fill="#E0E0E0"/>
<path d="M148.846 15.0566H145.99V24.5251H148.846V15.0566Z" fill="#E0E0E0"/>
<path d="M124.999 13.6875H122.143V24.5249H124.999V13.6875Z" fill="#E0E0E0"/>
<path d="M130.963 11.4258H128.107V24.5222H130.963V11.4258Z" fill="#E0E0E0"/>
<path d="M136.922 12.1445H134.067V24.5247H136.922V12.1445Z" fill="#E0E0E0"/>
<path d="M142.882 7.95508H140.026V24.5227H142.882V7.95508Z" fill="#E0E0E0"/>
<path d="M154.805 8.03906H151.95V24.5262H154.805V8.03906Z" fill="#E0E0E0"/>
<path d="M160.769 13.4551H157.913V24.5256H160.769V13.4551Z" fill="#E0E0E0"/>
<path d="M166.728 8.76172H163.873V24.5241H166.728V8.76172Z" fill="#E0E0E0"/>
<path d="M172.692 5.21484H169.837V24.5247H172.692V5.21484Z" fill="#E0E0E0"/>
<path d="M178.652 8.68164H175.796V24.5245H178.652V8.68164Z" fill="#E0E0E0"/>
<path d="M253.874 23.6464L277.485 20.0734C279.463 32.8944 270.433 45.0584 257.483 47.0165C244.532 48.9746 232.245 40.036 230.267 27.215C228.289 14.3941 237.318 2.23009 250.269 0.271982C252.332 -0.041654 254.426 -0.0840386 256.498 0.144831L253.874 23.6464Z" fill="#EBEBEB"/>
<path d="M261.533 0.21875L258.664 18.3376L276.628 14.9978C276.633 14.9936 273.991 4.84276 261.533 0.21875Z" fill="#E0E0E0"/>
<path d="M12.8044 67.5963C12.7016 61.1795 17.8691 55.8731 24.3209 55.7671C30.7771 55.6654 36.1115 60.8022 36.2143 67.2191C36.317 73.6359 31.1496 78.9423 24.6977 79.0482C18.2416 79.15 12.9071 74.0131 12.8044 67.5963ZM30.1049 67.3165C30.0536 64.248 27.5062 61.7898 24.4194 61.8406C21.3326 61.8915 18.8623 64.426 18.9137 67.4946C18.9651 70.5631 21.5124 73.0213 24.5992 72.9705C27.686 72.9239 30.1563 70.3851 30.1049 67.3165Z" fill="#F5F5F5"/>
<path d="M12.8044 67.5948C12.7016 61.178 17.8691 55.8716 24.3209 55.7656L24.4194 61.8391C21.3326 61.89 18.8623 64.4245 18.9137 67.4931C18.9651 70.5616 21.5124 73.0199 24.5992 72.969L24.6977 79.0425C18.2416 79.1485 12.9071 74.0116 12.8044 67.5948Z" fill="#E0E0E0"/>
<path d="M23.272 54.8299C30.8241 54.7112 36.8478 60.5093 36.9677 68.0196L29.8223 68.134C29.7624 64.5442 27.0052 62.2809 23.3961 62.3402L23.272 54.8299Z" fill="#EBEBEB"/>
<path d="M88.8566 108.479H73.975V125.991H88.8566V108.479Z" fill="#F5F5F5"/>
<path d="M74.493 107.334H7.24731V127.089H74.493V107.334Z" fill="#E0E0E0"/>
<path d="M89.3062 108.995H72.6864V107.334H89.3062C89.7686 107.334 90.1454 107.707 90.1454 108.165C90.1454 108.627 89.7686 108.995 89.3062 108.995Z" fill="#E0E0E0"/>
<path d="M89.3062 127.085H72.6864V125.424H89.3062C89.7686 125.424 90.1454 125.797 90.1454 126.255C90.1454 126.717 89.7686 127.085 89.3062 127.085Z" fill="#E0E0E0"/>
<path d="M69.2057 107.334H61.2596V127.089H69.2057V107.334Z" fill="#EBEBEB"/>
<path d="M21.5853 107.553H13.6393V127.308H21.5853V107.553Z" fill="#EBEBEB"/>
<path d="M88.8567 111.37C88.8567 111.417 85.6372 111.459 81.6642 111.459C77.6912 111.459 74.4717 111.421 74.4717 111.37C74.4717 111.324 77.6912 111.281 81.6642 111.281C85.6372 111.281 88.8567 111.324 88.8567 111.37Z" fill="#E0E0E0"/>
<path d="M88.8567 114.001C88.8567 114.048 85.6372 114.09 81.6642 114.09C77.6912 114.09 74.4717 114.052 74.4717 114.001C74.4717 113.954 77.6912 113.912 81.6642 113.912C85.6372 113.912 88.8567 113.95 88.8567 114.001Z" fill="#E0E0E0"/>
<path d="M88.8567 117.235C88.8567 117.282 85.6372 117.324 81.6642 117.324C77.6912 117.324 74.4717 117.286 74.4717 117.235C74.4717 117.189 77.6912 117.146 81.6642 117.146C85.6372 117.146 88.8567 117.185 88.8567 117.235Z" fill="#E0E0E0"/>
<path d="M88.8567 120.46C88.8567 120.507 85.6372 120.549 81.6642 120.549C77.6912 120.549 74.4717 120.511 74.4717 120.46C74.4717 120.413 77.6912 120.371 81.6642 120.371C85.6372 120.375 88.8567 120.413 88.8567 120.46Z" fill="#E0E0E0"/>
<path d="M88.8567 123.696C88.8567 123.743 85.6372 123.785 81.6642 123.785C77.6912 123.785 74.4717 123.747 74.4717 123.696C74.4717 123.65 77.6912 123.607 81.6642 123.607C85.6372 123.612 88.8567 123.65 88.8567 123.696Z" fill="#E0E0E0"/>
<path d="M56.987 115.453H26.7356V119.009H56.987V115.453Z" fill="#EBEBEB"/>
<path d="M88.7068 127.477H73.5983V138.149H88.7068V127.477Z" fill="#FAFAFA"/>
<path d="M73.7696 127.086H9.47363V138.529H73.7696V127.086Z" fill="#F5F5F5"/>
<path d="M73.2986 127.861H89.5374C89.7515 127.861 89.927 127.687 89.927 127.476C89.927 127.264 89.7515 127.09 89.5374 127.09H73.2986V127.861Z" fill="#F5F5F5"/>
<path d="M73.2986 138.53H89.7472C89.8456 138.53 89.927 138.449 89.927 138.352V137.932C89.927 137.834 89.8456 137.754 89.7472 137.754H73.2986V138.53V138.53Z" fill="#F5F5F5"/>
<path d="M88.707 129.499C88.707 129.546 85.3633 129.588 81.2362 129.588C77.109 129.588 73.7654 129.55 73.7654 129.499C73.7654 129.453 77.109 129.41 81.2362 129.41C85.359 129.41 88.707 129.453 88.707 129.499Z" fill="#E0E0E0"/>
<path d="M88.707 131.523C88.707 131.569 85.3633 131.612 81.2362 131.612C77.109 131.612 73.7654 131.573 73.7654 131.523C73.7654 131.476 77.109 131.434 81.2362 131.434C85.359 131.438 88.707 131.476 88.707 131.523Z" fill="#E0E0E0"/>
<path d="M88.707 133.54C88.707 133.587 85.3633 133.629 81.2362 133.629C77.109 133.629 73.7654 133.591 73.7654 133.54C73.7654 133.494 77.109 133.451 81.2362 133.451C85.359 133.451 88.707 133.489 88.707 133.54Z" fill="#E0E0E0"/>
<path d="M88.707 135.562C88.707 135.608 85.3633 135.651 81.2362 135.651C77.109 135.651 73.7654 135.613 73.7654 135.562C73.7654 135.515 77.109 135.473 81.2362 135.473C85.359 135.473 88.707 135.511 88.707 135.562Z" fill="#E0E0E0"/>
<path d="M90.9973 139.551H75.5762V168.477H90.9973V139.551Z" fill="#EBEBEB"/>
<path d="M75.5762 138.531H3.19299V169.895H75.5762V138.531Z" fill="#E0E0E0"/>
<path d="M92.2046 169.896H73.5983V167.861H92.2046C92.774 167.861 93.2321 168.315 93.2321 168.879C93.2321 169.442 92.7697 169.896 92.2046 169.896Z" fill="#E0E0E0"/>
<path d="M92.7612 140.56H73.5983V138.525H92.7612C93.0223 138.525 93.2321 138.733 93.2321 138.992V140.094C93.2321 140.352 93.0181 140.56 92.7612 140.56Z" fill="#E0E0E0"/>
<path d="M90.9973 143.421C90.9973 143.468 87.5466 143.51 83.2867 143.51C79.0269 143.51 75.5762 143.472 75.5762 143.421C75.5762 143.374 79.0269 143.332 83.2867 143.332C87.5466 143.336 90.9973 143.374 90.9973 143.421Z" fill="#E0E0E0"/>
<path d="M90.9973 147.14C90.9973 147.186 87.5466 147.229 83.2867 147.229C79.0269 147.229 75.5762 147.191 75.5762 147.14C75.5762 147.093 79.0269 147.051 83.2867 147.051C87.5466 147.051 90.9973 147.089 90.9973 147.14Z" fill="#E0E0E0"/>
<path d="M90.9973 150.845C90.9973 150.891 87.5466 150.934 83.2867 150.934C79.0269 150.934 75.5762 150.896 75.5762 150.845C75.5762 150.798 79.0269 150.756 83.2867 150.756C87.5466 150.756 90.9973 150.798 90.9973 150.845Z" fill="#E0E0E0"/>
<path d="M90.9973 154.554C90.9973 154.6 87.5466 154.643 83.2867 154.643C79.0269 154.643 75.5762 154.605 75.5762 154.554C75.5762 154.507 79.0269 154.465 83.2867 154.465C87.5466 154.469 90.9973 154.507 90.9973 154.554Z" fill="#E0E0E0"/>
<path d="M90.9973 158.263C90.9973 158.309 87.5466 158.352 83.2867 158.352C79.0269 158.352 75.5762 158.314 75.5762 158.263C75.5762 158.216 79.0269 158.174 83.2867 158.174C87.5466 158.174 90.9973 158.212 90.9973 158.263Z" fill="#E0E0E0"/>
<path d="M90.9973 161.978C90.9973 162.024 87.5466 162.067 83.2867 162.067C79.0269 162.067 75.5762 162.029 75.5762 161.978C75.5762 161.931 79.0269 161.889 83.2867 161.889C87.5466 161.889 90.9973 161.931 90.9973 161.978Z" fill="#E0E0E0"/>
<path d="M90.9973 165.685C90.9973 165.731 87.5466 165.774 83.2867 165.774C79.0269 165.774 75.5762 165.736 75.5762 165.685C75.5762 165.638 79.0269 165.596 83.2867 165.596C87.5466 165.6 90.9973 165.638 90.9973 165.685Z" fill="#E0E0E0"/>
<path d="M27.96 155.927V157.673C27.96 159.775 26.8983 160.975 24.8518 160.975C22.8054 160.975 21.7437 159.775 21.7437 157.673V150.841C21.7437 148.739 22.8054 147.539 24.8518 147.539C26.8983 147.539 27.96 148.739 27.96 150.841V152.116H25.9907V150.709C25.9907 149.773 25.5754 149.417 24.9118 149.417C24.2482 149.417 23.8329 149.773 23.8329 150.709V157.804C23.8329 158.741 24.2482 159.08 24.9118 159.08C25.5754 159.08 25.9907 158.741 25.9907 157.804V155.927H27.96Z" fill="#EBEBEB"/>
<path d="M29.0603 150.845C29.0603 148.742 30.1777 147.543 32.2242 147.543C34.2706 147.543 35.388 148.742 35.388 150.845V157.677C35.388 159.779 34.2706 160.978 32.2242 160.978C30.1777 160.978 29.0603 159.779 29.0603 157.677V150.845ZM31.1453 157.804C31.1453 158.741 31.5606 159.097 32.2242 159.097C32.8877 159.097 33.303 158.741 33.303 157.804V150.713C33.303 149.777 32.8877 149.421 32.2242 149.421C31.5606 149.421 31.1453 149.777 31.1453 150.713V157.804Z" fill="#EBEBEB"/>
<path d="M36.7323 147.691H38.8173V158.948H42.2466V160.826H36.7323V147.691V147.691Z" fill="#EBEBEB"/>
<path d="M42.9873 150.845C42.9873 148.742 44.1047 147.543 46.1512 147.543C48.1976 147.543 49.315 148.742 49.315 150.845V157.677C49.315 159.779 48.1976 160.978 46.1512 160.978C44.1047 160.978 42.9873 159.779 42.9873 157.677V150.845ZM45.0723 157.804C45.0723 158.741 45.4876 159.097 46.1512 159.097C46.8147 159.097 47.23 158.741 47.23 157.804V150.713C47.23 149.777 46.8147 149.421 46.1512 149.421C45.4876 149.421 45.0723 149.777 45.0723 150.713V157.804V157.804Z" fill="#EBEBEB"/>
<path d="M52.6544 147.691V157.825C52.6544 158.762 53.0697 159.101 53.7333 159.101C54.3969 159.101 54.8122 158.762 54.8122 157.825V147.691H56.7816V157.694C56.7816 159.796 55.7198 160.996 53.6734 160.996C51.6269 160.996 50.5652 159.796 50.5652 157.694V147.691H52.6544Z" fill="#EBEBEB"/>
<path d="M62.5655 160.826C62.4499 160.487 62.3771 160.283 62.3771 159.211V157.147C62.3771 155.926 61.9618 155.477 61.0114 155.477H60.2921V160.826H58.2072V147.691H61.3539C63.5159 147.691 64.445 148.687 64.445 150.713V151.743C64.445 153.095 64.0083 153.977 63.0792 154.409C64.1239 154.841 64.4621 155.833 64.4621 157.206V159.232C64.4621 159.872 64.4792 160.339 64.689 160.826H62.5655ZM60.2921 149.569V153.604H61.1056C61.8848 153.604 62.3557 153.265 62.3557 152.214V150.921C62.3557 149.984 62.0346 149.569 61.2939 149.569H60.2921Z" fill="#EBEBEB"/>
<path d="M27.5106 131.593H25.9907L26.0721 131.203H29.5613L29.4757 131.593H27.9601L27.1766 135.467H26.7271L27.5106 131.593Z" fill="#E0E0E0"/>
<path d="M32.4897 132.264L30.1264 135.883C29.7283 136.494 29.4243 136.68 28.9576 136.68C28.6579 136.68 28.3497 136.578 28.187 136.392L28.4225 136.074C28.5638 136.218 28.7479 136.307 28.9962 136.307C29.2745 136.307 29.4885 136.18 29.7411 135.79L29.968 135.451L29.1631 132.264H29.6041L30.2763 134.993L32.0444 132.264H32.4897Z" fill="#E0E0E0"/>
<path d="M36.086 133.59C36.086 134.692 35.311 135.497 34.2536 135.497C33.6371 135.497 33.2089 135.247 33.0206 134.798L32.6524 136.65H32.2157L33.0976 132.263H33.5172L33.4145 132.776C33.7227 132.437 34.1551 132.242 34.6774 132.242C35.5037 132.238 36.086 132.751 36.086 133.59ZM35.645 133.615C35.645 132.988 35.2554 132.615 34.579 132.615C33.7741 132.615 33.1833 133.242 33.1833 134.12C33.1833 134.747 33.5729 135.112 34.2493 135.112C35.0542 135.116 35.645 134.489 35.645 133.615Z" fill="#E0E0E0"/>
<path d="M36.5955 134.141C36.5955 133.052 37.3789 132.242 38.4664 132.242C39.3654 132.242 39.9391 132.768 39.9391 133.594C39.9391 134.692 39.1556 135.501 38.0682 135.501C37.1691 135.497 36.5955 134.963 36.5955 134.141ZM39.5024 133.615C39.5024 132.988 39.1128 132.615 38.4364 132.615C37.6315 132.615 37.0321 133.247 37.0321 134.12C37.0321 134.747 37.4217 135.112 38.0982 135.112C38.9031 135.116 39.5024 134.489 39.5024 133.615Z" fill="#E0E0E0"/>
<path d="M44.1262 132.264L43.561 135.078C43.3341 136.21 42.7305 136.68 41.6773 136.68C41.0693 136.68 40.5684 136.511 40.2388 136.197L40.4956 135.866C40.7525 136.129 41.1892 136.294 41.7072 136.294C42.525 136.294 42.9574 135.921 43.1115 135.15L43.1843 134.794C42.876 135.137 42.4393 135.345 41.8913 135.345C41.0351 135.345 40.4614 134.853 40.4614 134.052C40.4614 133.022 41.232 132.238 42.3066 132.238C42.9017 132.238 43.3855 132.48 43.5696 132.967L43.7066 132.259H44.1262V132.264ZM43.3898 133.548C43.3898 132.963 42.9916 132.615 42.3195 132.615C41.5017 132.615 40.9109 133.213 40.9109 134.027C40.9109 134.612 41.3048 134.959 41.9812 134.959C42.7947 134.964 43.3898 134.366 43.3898 133.548Z" fill="#E0E0E0"/>
<path d="M46.9817 132.238L46.9004 132.658C46.8576 132.658 46.8276 132.649 46.7762 132.649C46.0869 132.649 45.6246 133.039 45.4662 133.836L45.1408 135.464H44.7041L45.3463 132.259H45.7659L45.6545 132.844C45.9414 132.429 46.3652 132.238 46.9817 132.238Z" fill="#E0E0E0"/>
<path d="M50.6936 132.263L50.0472 135.468H49.6276L49.7303 134.963C49.4221 135.298 48.994 135.497 48.4674 135.497C47.6368 135.497 47.0588 134.984 47.0588 134.141C47.0588 133.043 47.8337 132.242 48.8869 132.242C49.5034 132.242 49.9316 132.492 50.1157 132.937L50.2527 132.268H50.6936V132.263ZM49.9658 133.615C49.9658 132.988 49.5762 132.615 48.8998 132.615C48.0949 132.615 47.4955 133.247 47.4955 134.12C47.4955 134.747 47.8851 135.112 48.5616 135.112C49.3707 135.116 49.9658 134.489 49.9658 133.615Z" fill="#E0E0E0"/>
<path d="M54.8936 133.59C54.8936 134.692 54.1187 135.497 53.0612 135.497C52.4447 135.497 52.0166 135.247 51.8282 134.798L51.46 136.65H51.0233L51.9053 132.263H52.3248L52.2221 132.776C52.5303 132.437 52.9627 132.242 53.485 132.242C54.307 132.238 54.8936 132.751 54.8936 133.59ZM54.4526 133.615C54.4526 132.988 54.063 132.615 53.3866 132.615C52.5817 132.615 51.9909 133.242 51.9909 134.12C51.9909 134.747 52.3805 135.112 53.0569 135.112C53.8618 135.116 54.4526 134.489 54.4526 133.615Z" fill="#E0E0E0"/>
<path d="M58.8109 133.281C58.8109 133.395 58.7981 133.518 58.7724 133.645L58.4042 135.468H57.9675L58.3357 133.641C58.3528 133.539 58.3656 133.442 58.3656 133.349C58.3656 132.891 58.0874 132.628 57.5308 132.628C56.8415 132.628 56.3663 133.001 56.2122 133.747L55.8697 135.464H55.433L56.3449 130.941H56.7816L56.4177 132.738C56.7259 132.391 57.1583 132.234 57.655 132.234C58.3871 132.238 58.8109 132.628 58.8109 133.281Z" fill="#E0E0E0"/>
<path d="M62.9037 132.264L60.5405 135.883C60.1423 136.494 59.8384 136.68 59.3717 136.68C59.072 136.68 58.7638 136.578 58.6011 136.392L58.8365 136.074C58.9778 136.218 59.1619 136.307 59.4102 136.307C59.6885 136.307 59.9026 136.18 60.1552 135.79L60.3821 135.451L59.5772 132.264H60.0182L60.6903 134.993L62.4585 132.264H62.9037Z" fill="#E0E0E0"/>
<path d="M72.6564 0.544922H20.8575H6.98621L17.6851 8.18662V23.22C17.6851 24.9534 19.1065 26.3606 20.8575 26.3606H72.6564C74.4075 26.3606 75.8289 24.9534 75.8289 23.22V3.68552C75.8289 1.95205 74.4075 0.544922 72.6564 0.544922Z" fill="#F5F5F5"/>
<path d="M69.9164 11.1672C69.9164 11.2307 60.0138 11.2816 47.7951 11.2816C35.5764 11.2816 25.6738 11.2307 25.6738 11.1672C25.6738 11.1036 35.5764 11.0527 47.7951 11.0527C60.0138 11.0527 69.9164 11.1036 69.9164 11.1672Z" fill="#E0E0E0"/>
<path d="M69.9164 16.9406C69.9164 17.0042 60.0138 17.055 47.7951 17.055C35.5764 17.055 25.6738 17.0042 25.6738 16.9406C25.6738 16.877 35.5764 16.8262 47.7951 16.8262C60.0138 16.8262 69.9164 16.877 69.9164 16.9406Z" fill="#E0E0E0"/>
<path d="M300.415 169.891C300.415 169.951 233.272 170.002 150.464 170.002C67.6258 170.002 0.5 169.951 0.5 169.891C0.5 169.832 67.6301 169.781 150.464 169.781C233.268 169.781 300.415 169.832 300.415 169.891Z" fill="#263238"/>
<path d="M272.236 148.26C272.236 148.26 260.886 135.329 256.605 122.398C252.324 109.467 254.357 110.95 254.357 110.95C254.357 110.95 260.137 123.513 264.529 129.578C268.918 135.647 276.735 144.547 276.735 144.547L272.236 148.26Z" fill="#455A64"/>
<path d="M274.496 112.967C274.128 112.335 273.156 112.662 273.263 113.382C273.957 117.926 275.451 128.581 275.391 135.498C275.314 144.479 275.395 147.95 275.395 147.95H280.117C280.117 147.95 279.278 129.386 278.212 123.724C277.467 119.757 275.879 115.349 274.496 112.967Z" fill="#455A64"/>
<path d="M277.073 146.44C277.073 146.44 280.045 140.252 280.961 132.479C281.35 129.173 280.657 124.706 279.625 118.743C279.124 115.856 279.013 113.657 279.03 112.135C279.043 110.982 280.576 110.609 281.145 111.614C281.714 112.622 283.367 116.06 283.782 118.217C284.925 124.104 286.223 127.045 285.229 132.632C284.24 138.218 280.58 146.817 280.58 146.817L277.073 146.44Z" fill="#455A64"/>
<path d="M281.325 146.817C281.325 146.817 293.783 120.307 294.648 116.378C295.513 112.445 298.45 103.383 298.792 103.896C299.139 104.409 299.657 109.198 297.41 114.67C295.166 120.141 285.576 147.627 285.576 147.627H281.321" fill="#455A64"/>
<path d="M275.708 145.631C275.704 145.64 275.584 145.555 275.357 145.394C275.134 145.228 274.8 144.995 274.393 144.665C273.563 144.021 272.398 143.037 271.046 141.74C268.327 139.155 264.94 135.167 262.008 130.254C259.067 125.342 257.089 120.54 255.839 117.022C255.213 115.263 254.755 113.822 254.46 112.818C254.306 112.318 254.203 111.928 254.13 111.661C254.057 111.394 254.023 111.254 254.032 111.254C254.04 111.25 254.092 111.385 254.182 111.648C254.276 111.932 254.4 112.314 254.558 112.788C254.884 113.78 255.368 115.208 256.018 116.959C257.311 120.451 259.311 125.228 262.239 130.119C265.163 135.01 268.507 138.998 271.183 141.605C272.514 142.919 273.657 143.915 274.466 144.584C274.864 144.928 275.19 145.173 275.4 145.351C275.605 145.529 275.712 145.623 275.708 145.631Z" fill="#263238"/>
<path d="M277.069 132.911C277.052 132.911 277.014 132.635 276.958 132.131C276.898 131.58 276.821 130.868 276.727 130.007C276.53 128.215 276.222 125.739 275.781 123.023C275.34 120.306 274.847 117.86 274.466 116.097C274.282 115.25 274.128 114.546 274.012 114.008C273.905 113.516 273.854 113.241 273.871 113.236C273.888 113.232 273.974 113.499 274.111 113.987C274.252 114.474 274.436 115.182 274.65 116.059C275.078 117.814 275.601 120.259 276.042 122.985C276.483 125.71 276.761 128.189 276.911 129.99C276.988 130.889 277.035 131.622 277.056 132.127C277.086 132.631 277.091 132.911 277.069 132.911Z" fill="#263238"/>
<path d="M279.989 111.404C279.998 111.4 280.049 111.519 280.135 111.739C280.229 111.989 280.353 112.316 280.507 112.723C280.674 113.151 280.862 113.676 281.042 114.299C281.226 114.922 281.466 115.622 281.646 116.423C281.744 116.821 281.847 117.236 281.954 117.669C282.057 118.101 282.134 118.563 282.228 119.033C282.434 119.974 282.558 120.996 282.708 122.068C282.952 124.217 283.084 126.595 283.007 129.095C282.905 131.592 282.601 133.957 282.202 136.084C281.976 137.144 281.774 138.152 281.505 139.076C281.376 139.538 281.269 139.992 281.132 140.42C280.995 140.844 280.862 141.251 280.734 141.641C280.494 142.425 280.207 143.107 279.976 143.713C279.749 144.323 279.522 144.836 279.33 145.247C279.146 145.642 279 145.959 278.884 146.201C278.782 146.417 278.722 146.532 278.713 146.527C278.705 146.523 278.747 146.405 278.837 146.18C278.94 145.934 279.069 145.608 279.236 145.205C279.415 144.785 279.629 144.268 279.839 143.658C280.053 143.048 280.332 142.361 280.558 141.577C280.678 141.187 280.807 140.78 280.939 140.356C281.068 139.933 281.171 139.479 281.295 139.017C281.556 138.093 281.744 137.089 281.967 136.033C282.348 133.914 282.648 131.562 282.746 129.082C282.823 126.599 282.699 124.234 282.472 122.093C282.327 121.025 282.211 120.012 282.018 119.072C281.928 118.601 281.86 118.143 281.761 117.711C281.659 117.279 281.565 116.863 281.47 116.465C281.303 115.668 281.076 114.965 280.905 114.342C280.738 113.714 280.563 113.185 280.417 112.752C280.28 112.337 280.173 112.006 280.092 111.752C280.015 111.532 279.98 111.409 279.989 111.404Z" fill="#263238"/>
<path d="M298.651 104.428C298.655 104.428 298.651 104.47 298.643 104.546C298.63 104.64 298.608 104.754 298.587 104.89C298.531 105.191 298.463 105.64 298.343 106.208C298.103 107.348 297.701 108.988 297.08 110.98C296.459 112.972 295.607 115.308 294.597 117.872C293.591 120.44 292.422 123.233 291.317 126.208C290.196 129.18 289.331 132.079 288.517 134.711C287.712 137.343 286.946 139.708 286.21 141.661C285.478 143.615 284.776 145.154 284.24 146.196C283.983 146.722 283.757 147.112 283.607 147.383C283.538 147.506 283.478 147.604 283.431 147.688C283.393 147.756 283.367 147.79 283.363 147.786C283.358 147.782 283.376 147.748 283.406 147.676C283.448 147.591 283.495 147.485 283.555 147.362C283.688 147.086 283.902 146.688 284.142 146.154C284.643 145.103 285.319 143.56 286.026 141.602C286.741 139.648 287.486 137.283 288.278 134.647C289.078 132.015 289.939 129.103 291.065 126.124C292.174 123.14 293.351 120.347 294.366 117.787C295.384 115.231 296.254 112.909 296.896 110.929C297.542 108.95 297.966 107.323 298.24 106.191C298.377 105.627 298.463 105.182 298.535 104.885C298.57 104.75 298.595 104.64 298.617 104.546C298.634 104.466 298.647 104.428 298.651 104.428Z" fill="#263238"/>
<path d="M260.231 98.57C259.448 97.7987 258.142 98.604 258.463 99.6551C258.793 100.719 259.293 102.092 260.03 103.639C261.742 107.242 266.773 120.173 269.132 127.276C271.486 134.375 274.804 147.624 274.804 147.624L279.835 146.815C279.835 146.815 275.233 125.047 270.737 117.202C267.124 110.904 263.51 101.8 260.231 98.57Z" fill="#455A64"/>
<path d="M270.506 131.717C270.523 131.713 270.613 131.925 270.767 132.314C270.917 132.704 271.118 133.277 271.345 133.984C271.808 135.404 272.377 137.388 272.946 139.592C273.516 141.796 273.991 143.8 274.321 145.258C274.471 145.945 274.599 146.526 274.697 146.983C274.783 147.39 274.817 147.619 274.8 147.623C274.783 147.628 274.71 147.407 274.595 147.005C274.471 146.551 274.316 145.979 274.132 145.301C273.747 143.805 273.242 141.834 272.681 139.655C272.112 137.456 271.572 135.468 271.157 134.035C270.96 133.361 270.793 132.793 270.66 132.34C270.549 131.946 270.489 131.721 270.506 131.717Z" fill="#263238"/>
<path d="M277.33 147.223C277.326 147.223 277.318 147.176 277.301 147.091C277.283 146.99 277.266 146.858 277.245 146.697C277.193 146.354 277.146 145.841 277.039 145.188C276.855 143.879 276.526 141.997 275.986 139.696C275.451 137.394 274.668 134.69 273.631 131.74C272.6 128.79 271.307 125.603 269.838 122.306C266.88 115.715 263.922 109.87 261.982 105.547C261.002 103.39 260.24 101.631 259.739 100.406C259.482 99.796 259.302 99.3128 259.174 98.9907C259.118 98.8381 259.071 98.7194 259.032 98.6177C259.002 98.5329 258.99 98.4906 258.994 98.4863C258.998 98.4863 259.02 98.5245 259.058 98.605C259.101 98.7025 259.157 98.8212 259.221 98.9653C259.371 99.3043 259.572 99.7705 259.833 100.36C260.364 101.572 261.147 103.318 262.149 105.463C264.136 109.76 267.115 115.592 270.078 122.191C271.546 125.493 272.835 128.693 273.858 131.655C274.882 134.618 275.648 137.335 276.166 139.649C276.684 141.959 276.988 143.853 277.138 145.171C277.228 145.828 277.258 146.341 277.296 146.689C277.309 146.85 277.318 146.981 277.326 147.083C277.335 147.176 277.335 147.223 277.33 147.223Z" fill="#263238"/>
<path d="M279.835 146.819C279.818 146.823 279.758 146.522 279.664 145.984C279.565 145.399 279.433 144.627 279.274 143.695C278.927 141.767 278.396 139.109 277.639 136.219C276.885 133.324 276.037 130.747 275.382 128.899C275.061 128.009 274.796 127.272 274.595 126.712C274.406 126.195 274.312 125.907 274.329 125.903C274.346 125.894 274.475 126.17 274.693 126.678C274.911 127.183 275.211 127.92 275.562 128.84C276.26 130.675 277.142 133.252 277.9 136.155C278.662 139.058 279.163 141.728 279.467 143.67C279.608 144.64 279.719 145.429 279.775 145.975C279.826 146.514 279.852 146.814 279.835 146.819Z" fill="#263238"/>
<path d="M290.161 146.102H270.527V169.781H290.161V146.102Z" fill="#F7CA15"/>
<g opacity="0.3">
<path opacity="0.3" d="M290.161 146.102H270.527V169.781H290.161V146.102Z" fill="black"/>
</g>
<path d="M283.894 146.102H266.477V169.781H283.894V146.102Z" fill="#F7CA15"/>
<path d="M28.6664 137.867C25.3227 135.748 20.6861 135.706 17.4324 137.96C14.3413 140.101 12.7743 143.991 12.9113 147.721C13.0483 151.451 14.8722 156.007 18.2886 157.969L28.3068 157.931C31.5049 155.6 33.6712 151.849 33.821 147.92C33.9666 143.987 32.01 139.986 28.6664 137.867Z" fill="#455A64"/>
<path d="M23.7301 158.328C23.7087 158.328 23.6873 158.023 23.6659 157.477C23.6487 156.866 23.6273 156.086 23.5974 155.15C23.546 153.187 23.4689 150.475 23.3362 147.478C23.2035 144.482 23.0408 141.774 22.9167 139.815C22.861 138.883 22.8139 138.103 22.7754 137.493C22.7454 136.942 22.7411 136.641 22.7625 136.637C22.7839 136.637 22.831 136.938 22.8995 137.48C22.968 138.027 23.0494 138.819 23.1393 139.799C23.3191 141.757 23.5203 144.469 23.653 147.466C23.7857 150.462 23.8286 153.179 23.82 155.145C23.8157 156.129 23.8029 156.926 23.7857 157.472C23.7729 158.023 23.7515 158.328 23.7301 158.328Z" fill="#263238"/>
<path d="M13.9175 146.873C13.909 146.962 13.3652 146.988 12.7016 146.932C12.038 146.877 11.5029 146.763 11.5115 146.678C11.52 146.589 12.0637 146.564 12.7273 146.619C13.3909 146.67 13.9261 146.784 13.9175 146.873Z" fill="#263238"/>
<path d="M14.1058 143.527C14.0715 143.608 13.6006 143.477 13.0569 143.239C12.5131 143.002 12.1021 142.743 12.1364 142.663C12.1706 142.582 12.6416 142.709 13.1853 142.951C13.729 143.188 14.14 143.447 14.1058 143.527Z" fill="#263238"/>
<path d="M15.844 141.042C15.7969 141.114 15.2703 140.868 14.7223 140.419C14.1743 139.97 13.8276 139.503 13.8918 139.444C13.956 139.385 14.3927 139.741 14.9236 140.173C15.4544 140.61 15.8911 140.966 15.844 141.042Z" fill="#263238"/>
<path d="M17.5951 138.7C17.5137 138.734 17.2611 138.344 17.0299 137.827C16.7987 137.309 16.6746 136.86 16.7559 136.826C16.8373 136.792 17.0899 137.182 17.3211 137.699C17.5522 138.216 17.6721 138.666 17.5951 138.7Z" fill="#263238"/>
<path d="M20.3394 137.038C20.2623 137.076 19.9883 136.656 19.8085 136.08C19.6244 135.504 19.6116 135.008 19.6972 134.991C19.7871 134.974 19.937 135.427 20.1125 135.982C20.2837 136.542 20.4207 137 20.3394 137.038Z" fill="#263238"/>
<path d="M24.916 135.16C24.9973 135.19 24.9502 135.546 24.8004 135.953C24.6548 136.364 24.4664 136.669 24.3851 136.644C24.3037 136.614 24.3508 136.258 24.5007 135.851C24.6462 135.44 24.8346 135.131 24.916 135.16Z" fill="#263238"/>
<path d="M28.3153 136.604C28.3753 136.668 28.1569 136.964 27.8273 137.265C27.4976 137.566 27.1851 137.757 27.1251 137.693C27.0652 137.63 27.2835 137.333 27.6132 137.032C27.9386 136.731 28.2554 136.54 28.3153 136.604Z" fill="#263238"/>
<path d="M31.3036 138.515C31.355 138.587 31.0895 138.849 30.7085 139.104C30.3318 139.358 29.985 139.502 29.9336 139.43C29.8822 139.358 30.1477 139.095 30.5287 138.841C30.9097 138.587 31.2565 138.443 31.3036 138.515Z" fill="#263238"/>
<path d="M33.4272 141.364C33.4615 141.445 33.0419 141.699 32.4939 141.932C31.9416 142.165 31.4664 142.288 31.4321 142.208C31.3979 142.127 31.8174 141.873 32.3697 141.64C32.9177 141.411 33.393 141.284 33.4272 141.364Z" fill="#263238"/>
<path d="M34.2662 144.476C34.2791 144.561 33.8509 144.688 33.3158 144.752C32.7806 144.819 32.3354 144.798 32.3268 144.714C32.314 144.629 32.7421 144.502 33.2773 144.438C33.8124 144.37 34.2534 144.387 34.2662 144.476Z" fill="#263238"/>
<path d="M34.6987 148.304C34.6645 148.385 34.2107 148.266 33.6841 148.041C33.1575 147.817 32.7636 147.567 32.7979 147.486C32.8321 147.406 33.2859 147.524 33.8125 147.749C34.3391 147.974 34.7373 148.224 34.6987 148.304Z" fill="#263238"/>
<path d="M34.3177 151.589C34.2877 151.669 33.714 151.533 33.1146 151.143C32.511 150.758 32.1556 150.292 32.2199 150.232C32.2841 150.169 32.7208 150.512 33.2902 150.876C33.8553 151.245 34.3476 151.504 34.3177 151.589Z" fill="#263238"/>
<path d="M32.5881 154.575C32.5367 154.643 32.0786 154.376 31.6419 153.91C31.2009 153.444 30.9697 152.973 31.0382 152.927C31.111 152.876 31.4535 153.249 31.8731 153.698C32.2969 154.143 32.648 154.507 32.5881 154.575Z" fill="#263238"/>
<path d="M16.1908 154.926C16.2336 155.003 15.7498 155.329 15.1205 155.655C14.4869 155.982 13.9432 156.181 13.9003 156.105C13.8575 156.028 14.3413 155.702 14.9707 155.376C15.6043 155.049 16.148 154.85 16.1908 154.926Z" fill="#263238"/>
<path d="M14.6924 152.222C14.7309 152.303 14.3456 152.553 13.8318 152.781C13.3224 153.01 12.8771 153.133 12.8386 153.053C12.8001 152.972 13.1854 152.722 13.6991 152.493C14.2129 152.264 14.6538 152.141 14.6924 152.222Z" fill="#263238"/>
<path d="M13.5921 149.831C13.6049 149.916 13.1297 150.056 12.5346 150.14C11.9395 150.225 11.4429 150.221 11.4301 150.136C11.4172 150.051 11.8924 149.911 12.4875 149.827C13.0826 149.742 13.5793 149.742 13.5921 149.831Z" fill="#263238"/>
<path d="M17.2012 148.506C17.2269 148.586 16.7646 148.802 16.1481 148.87C15.5316 148.942 15.0349 148.832 15.0392 148.747C15.0435 148.658 15.5273 148.62 16.1095 148.552C16.6961 148.493 17.1756 148.421 17.2012 148.506Z" fill="#263238"/>
<path d="M20.2024 145.554C20.2281 145.635 19.8599 145.821 19.3633 145.868C18.8667 145.919 18.4728 145.808 18.4813 145.724C18.4899 145.635 18.8709 145.601 19.3333 145.554C19.7957 145.508 20.1767 145.469 20.2024 145.554Z" fill="#263238"/>
<path d="M20.7761 143.182C20.7461 143.267 20.348 143.203 19.8856 143.047C19.4232 142.89 19.0722 142.695 19.1021 142.61C19.1321 142.53 19.5302 142.589 19.9926 142.746C20.455 142.907 20.8061 143.102 20.7761 143.182Z" fill="#263238"/>
<path d="M21.8764 140.788C21.8164 140.847 21.5424 140.669 21.3455 140.335C21.1485 140 21.1314 139.678 21.2128 139.652C21.2984 139.627 21.4482 139.877 21.6195 140.173C21.795 140.479 21.9406 140.729 21.8764 140.788Z" fill="#263238"/>
<path d="M20.5492 150.594C20.5706 150.679 20.2238 150.836 19.7786 150.942C19.5217 151.005 19.2862 151.035 19.1321 151.035L19.0679 150.848C19.1835 150.827 19.2562 150.831 19.2734 150.865C19.2862 150.899 19.2434 150.958 19.1492 151.026L19.085 150.84C19.222 150.768 19.4446 150.691 19.7015 150.628C20.151 150.53 20.5278 150.509 20.5492 150.594Z" fill="#263238"/>
<path d="M21.17 154.793C21.2042 154.874 20.7632 155.124 20.1896 155.344C19.6159 155.569 19.1235 155.683 19.0893 155.603C19.055 155.522 19.496 155.276 20.0697 155.052C20.6434 154.827 21.1357 154.713 21.17 154.793Z" fill="#263238"/>
<path d="M17.7792 152.927C17.8091 153.011 17.5137 153.185 17.1241 153.312C16.7345 153.444 16.3963 153.482 16.3664 153.401C16.3364 153.317 16.6318 153.147 17.0214 153.016C17.411 152.884 17.7492 152.842 17.7792 152.927Z" fill="#263238"/>
<path d="M18.036 144.383C18.0146 144.468 17.5051 144.417 16.9143 144.209C16.3235 144.002 15.8954 143.726 15.9339 143.646C15.9725 143.565 16.4477 143.709 17.0214 143.909C17.5951 144.112 18.0574 144.294 18.036 144.383Z" fill="#263238"/>
<path d="M26.2389 143.455C26.286 143.527 25.9991 143.802 25.5967 144.065C25.1943 144.328 24.8261 144.481 24.779 144.408C24.7319 144.336 25.0187 144.061 25.4212 143.798C25.8236 143.535 26.1918 143.379 26.2389 143.455Z" fill="#263238"/>
<path d="M26.6884 147.666C26.7056 147.751 26.4059 147.886 26.012 147.967C25.6224 148.047 25.2927 148.043 25.2713 147.958C25.2542 147.874 25.5539 147.738 25.9478 147.657C26.3374 147.577 26.667 147.581 26.6884 147.666Z" fill="#263238"/>
<path d="M27.2065 152.41C27.168 152.491 26.7356 152.368 26.2347 152.139C25.7338 151.91 25.3613 151.66 25.3998 151.579C25.4384 151.499 25.8708 151.622 26.3717 151.851C26.8683 152.08 27.2408 152.33 27.2065 152.41Z" fill="#263238"/>
<path d="M26.1063 157.022C26.0378 157.077 25.7552 156.848 25.4769 156.513C25.1986 156.174 25.0274 155.856 25.0916 155.801C25.1601 155.746 25.4427 155.975 25.721 156.31C26.0035 156.649 26.1748 156.967 26.1063 157.022Z" fill="#263238"/>
<path d="M25.8836 140.35C25.9392 140.417 25.7508 140.651 25.4298 140.807C25.1087 140.968 24.809 140.977 24.7876 140.892C24.7619 140.807 24.9973 140.668 25.2842 140.523C25.5753 140.384 25.8279 140.282 25.8836 140.35Z" fill="#263238"/>
<path d="M29.9037 144.6C29.9337 144.68 29.5612 144.884 29.0517 144.951C28.5423 145.024 28.1312 144.926 28.1355 144.841C28.1398 144.752 28.5337 144.701 29.0089 144.638C29.4798 144.579 29.8737 144.519 29.9037 144.6Z" fill="#263238"/>
<path d="M29.1031 140.785C29.1416 140.861 28.7734 141.124 28.2468 141.29C27.7202 141.455 27.2664 141.455 27.2536 141.37C27.2407 141.281 27.6475 141.145 28.1484 140.989C28.6493 140.828 29.0646 140.705 29.1031 140.785Z" fill="#263238"/>
<path d="M30.7813 150.512C30.7813 150.597 30.1477 150.652 29.3856 150.516C28.6236 150.381 28.0499 150.109 28.0799 150.029C28.1098 149.944 28.7049 150.075 29.4413 150.203C30.1777 150.338 30.7813 150.423 30.7813 150.512Z" fill="#263238"/>
<path d="M29.2873 156.056C29.2359 156.124 28.7692 155.853 28.3069 155.391C27.8402 154.929 27.5705 154.467 27.639 154.416C27.7118 154.361 28.0842 154.721 28.5338 155.166C28.979 155.615 29.3429 155.988 29.2873 156.056Z" fill="#263238"/>
<path d="M22.7197 136.273C22.7668 136.341 21.4439 136.87 19.9154 138.468C18.387 140.028 16.8115 142.783 16.4219 146.11C16.2378 147.763 16.3963 149.365 16.6317 150.793C16.88 152.222 17.214 153.493 17.5179 154.553C17.8262 155.612 18.1088 156.46 18.2971 157.045C18.4855 157.634 18.5883 157.96 18.5669 157.969C18.5454 157.977 18.4084 157.664 18.1815 157.087C17.9546 156.511 17.6421 155.672 17.3039 154.616C16.9699 153.561 16.6146 152.289 16.3449 150.844C16.088 149.403 15.9168 147.776 16.1051 146.076C16.5033 142.673 18.1516 139.867 19.7528 138.316C20.5491 137.527 21.2983 137.002 21.8463 136.697C22.1117 136.531 22.3386 136.442 22.4885 136.366C22.634 136.298 22.7154 136.264 22.7197 136.273Z" fill="#263238"/>
<path d="M27.0824 158.17C27.0139 158.136 27.8016 156.932 28.5209 154.771C29.2615 152.63 29.8738 149.464 29.3814 146.027C29.1502 144.31 28.6493 142.721 28.02 141.365C27.3649 140.026 26.5215 138.928 25.6995 138.161C24.8476 137.415 24.0084 136.987 23.4219 136.737C22.8311 136.491 22.4757 136.436 22.48 136.41C22.48 136.402 22.5699 136.406 22.7412 136.431C22.9081 136.461 23.1565 136.516 23.4647 136.626C24.0769 136.847 24.9417 137.249 25.8451 137.995C26.7227 138.771 27.5918 139.864 28.2854 141.242C28.9447 142.624 29.4628 144.238 29.6982 145.985C30.1991 149.49 29.5398 152.702 28.7349 154.847C28.5551 155.394 28.3197 155.864 28.1484 156.284C27.9429 156.691 27.7717 157.047 27.6175 157.326C27.2879 157.877 27.0995 158.178 27.0824 158.17Z" fill="#263238"/>
<path d="M14.6924 157.418H32.3226L32.4296 160.91H14.6924V157.418Z" fill="#77BED0"/>
<path d="M16.1908 159.164L17.2012 169.828H30.092L31.1281 159.283L16.1908 159.164Z" fill="#77BED0"/>
<path d="M32.4296 160.954C32.4296 161.043 28.4609 161.111 23.5631 161.111C18.6654 161.111 14.6967 161.038 14.6967 160.954C14.6967 160.869 18.6654 160.797 23.5631 160.797C28.4609 160.797 32.4296 160.865 32.4296 160.954Z" fill="#263238"/>
<path d="M30.6401 164.202C30.6572 164.21 30.5373 164.456 30.2633 164.867C29.985 165.274 29.5483 165.851 28.8976 166.465L28.8162 166.541L28.7349 166.457C27.8872 165.575 26.7184 164.494 25.2799 163.464L25.4769 163.456C24.9845 163.884 24.4708 164.329 23.9442 164.787C23.3191 165.325 22.7112 165.851 22.1332 166.346L22.0347 166.431L21.9363 166.346C20.8403 165.431 19.8384 164.6 18.9908 163.897L19.162 163.88C18.5541 164.613 18.0446 165.232 17.6379 165.719C17.2697 166.151 17.0599 166.38 17.0385 166.368C17.0214 166.355 17.1969 166.092 17.5308 165.639C17.9119 165.134 18.3957 164.494 18.9693 163.736L19.0421 163.638L19.1406 163.719C20.0011 164.41 21.0158 165.223 22.1289 166.118L21.9277 166.122C22.5057 165.622 23.1093 165.096 23.7301 164.554C24.2567 164.096 24.7747 163.655 25.2671 163.227L25.3613 163.146L25.4597 163.219C26.9111 164.274 28.0713 165.393 28.8976 166.308L28.7349 166.304C30.0492 165.13 30.5887 164.168 30.6401 164.202Z" fill="#263238"/>
<path d="M242.481 166.916H55.8523C52.4059 166.916 49.6145 164.152 49.6145 160.741V42.7456C49.6145 39.3337 52.4059 36.5703 55.8523 36.5703H242.481C245.927 36.5703 248.719 39.3337 248.719 42.7456V160.741C248.719 164.148 245.927 166.916 242.481 166.916Z" fill="#455A64"/>
<path d="M251.189 169.896H50.7191C46.5107 169.896 43.0985 166.518 43.0985 162.351V158.49H258.81V162.351C258.81 166.522 255.398 169.896 251.189 169.896Z" fill="#455A64"/>
<path d="M129.541 157.273L132.217 161.491H169.884L172.367 157.273H129.541Z" fill="#263238"/>
<path d="M247.006 157.27C247.006 157.342 202.815 157.397 148.315 157.397C93.7971 157.397 49.6145 157.342 49.6145 157.27C49.6145 157.198 93.7971 157.143 148.315 157.143C202.815 157.143 247.006 157.198 247.006 157.27Z" fill="#263238"/>
<path d="M240.838 153.83H56.7221C55.9472 153.83 55.3221 153.207 55.3221 152.444V45.4562C55.3221 44.6891 55.9515 44.0703 56.7221 44.0703H240.842C241.617 44.0703 242.242 44.6933 242.242 45.4562V152.444C242.238 153.207 241.613 153.83 240.838 153.83Z" fill="#EBEBEB"/>
<path d="M242.04 153.987H55.116L55.3172 52.2676H242.04V153.987Z" fill="white"/>
<path d="M70.6484 48.3054C70.6484 49.1233 69.9805 49.7845 69.1542 49.7845C68.3279 49.7845 67.66 49.1233 67.66 48.3054C67.66 47.4874 68.3279 46.8262 69.1542 46.8262C69.9805 46.8262 70.6484 47.4874 70.6484 48.3054Z" fill="#263238"/>
<path d="M61.6021 48.3054C61.6021 49.1233 60.9342 49.7845 60.1079 49.7845C59.2816 49.7845 58.6138 49.1233 58.6138 48.3054C58.6138 47.4874 59.2816 46.8262 60.1079 46.8262C60.9342 46.8262 61.6021 47.4874 61.6021 48.3054Z" fill="#263238"/>
<path d="M65.9433 48.3054C65.9433 49.1233 65.2754 49.7845 64.4491 49.7845C63.6228 49.7845 62.955 49.1233 62.955 48.3054C62.955 47.4874 63.6228 46.8262 64.4491 46.8262C65.2754 46.8262 65.9433 47.4874 65.9433 48.3054Z" fill="#263238"/>
<path d="M242.237 144.158H55.116V153.983H242.237V144.158Z" fill="#263238"/>
<path d="M62.1886 150.207V150.52H60.6988V150.27L61.5036 149.516C61.7006 149.329 61.7348 149.215 61.7348 149.101C61.7348 148.918 61.6064 148.812 61.3581 148.812C61.1611 148.812 60.9985 148.88 60.8829 149.02L60.6217 148.821C60.7758 148.613 61.0584 148.49 61.3881 148.49C61.829 148.49 62.1116 148.711 62.1116 149.067C62.1116 149.262 62.0559 149.44 61.7776 149.698L61.2382 150.207H62.1886V150.207Z" fill="white"/>
<path d="M62.3899 149.214C62.3899 149.07 62.4969 148.977 62.6254 148.977C62.7538 148.977 62.8608 149.07 62.8608 149.214C62.8608 149.35 62.7538 149.451 62.6254 149.451C62.4969 149.451 62.3899 149.354 62.3899 149.214ZM62.3899 150.303C62.3899 150.159 62.4969 150.066 62.6254 150.066C62.7538 150.066 62.8608 150.159 62.8608 150.303C62.8608 150.439 62.7538 150.541 62.6254 150.541C62.4969 150.541 62.3899 150.443 62.3899 150.303Z" fill="white"/>
<path d="M63.8027 148.52V150.52H63.4259V148.829H62.9978V148.516H63.8027V148.52Z" fill="white"/>
<path d="M66.0075 150.067H65.6479V150.52H65.284V150.067H64.1752V149.808L65.1727 148.52H65.5751L64.6375 149.753H65.3011V149.35H65.6522V149.753H66.0118V150.067H66.0075Z" fill="white"/>
<path d="M222.68 149.266H69.3083V149.956H222.68V149.266Z" fill="white"/>
<path d="M117.121 148.523H69.1927V150.371H117.121V148.523Z" fill="#F7CA15"/>
<path d="M118.671 149.615C118.671 150.89 117.627 151.924 116.338 151.924C115.049 151.924 114.005 150.89 114.005 149.615C114.005 148.339 115.049 147.305 116.338 147.305C117.627 147.305 118.671 148.339 118.671 149.615Z" fill="#F7CA15"/>
<path d="M226.542 149.591C226.542 149.989 226.217 150.24 225.801 150.24C225.249 150.24 224.928 149.888 224.928 149.244C224.928 148.557 225.33 148.18 225.917 148.18C226.118 148.18 226.311 148.222 226.448 148.307L226.311 148.587C226.199 148.515 226.067 148.489 225.925 148.489C225.544 148.489 225.305 148.722 225.305 149.18V149.184C225.424 149.044 225.621 148.976 225.844 148.976C226.246 148.976 226.542 149.218 226.542 149.591ZM226.178 149.608C226.178 149.4 226.02 149.269 225.776 149.269C225.532 149.269 225.365 149.413 225.365 149.612C225.365 149.799 225.514 149.951 225.784 149.951C226.02 149.947 226.178 149.816 226.178 149.608Z" fill="white"/>
<path d="M226.726 148.903C226.726 148.759 226.833 148.666 226.961 148.666C227.09 148.666 227.197 148.759 227.197 148.903C227.197 149.039 227.09 149.141 226.961 149.141C226.833 149.141 226.726 149.039 226.726 148.903ZM226.726 149.993C226.726 149.849 226.833 149.755 226.961 149.755C227.09 149.755 227.197 149.849 227.197 149.993C227.197 150.128 227.09 150.23 226.961 150.23C226.833 150.23 226.726 150.128 226.726 149.993Z" fill="white"/>
<path d="M227.441 149.21C227.441 148.553 227.805 148.18 228.284 148.18C228.768 148.18 229.132 148.553 229.132 149.21C229.132 149.867 228.768 150.24 228.284 150.24C227.805 150.24 227.441 149.867 227.441 149.21ZM228.751 149.21C228.751 148.726 228.563 148.502 228.284 148.502C228.01 148.502 227.818 148.726 227.818 149.21C227.818 149.693 228.01 149.917 228.284 149.917C228.563 149.917 228.751 149.693 228.751 149.21Z" fill="white"/>
<path d="M229.38 149.21C229.38 148.553 229.744 148.18 230.224 148.18C230.708 148.18 231.071 148.553 231.071 149.21C231.071 149.867 230.708 150.24 230.224 150.24C229.744 150.24 229.38 149.867 229.38 149.21ZM230.695 149.21C230.695 148.726 230.506 148.502 230.228 148.502C229.954 148.502 229.761 148.726 229.761 149.21C229.761 149.693 229.954 149.917 230.228 149.917C230.502 149.917 230.695 149.693 230.695 149.21Z" fill="white"/>
<path d="M234.338 149.088H233.64V147.092H235.648V147.783H234.338V149.088Z" fill="white"/>
<path d="M235.652 151.689H233.636V149.701H234.334V150.998H235.652V151.689Z" fill="white"/>
<path d="M238.863 151.69H236.851V150.999H238.161V149.693H238.863V151.69Z" fill="white"/>
<path d="M238.863 149.084H238.166V147.783H236.847V147.092H238.863V149.084Z" fill="white"/>
<path d="M80.7521 58.3086H69.7321L64.2264 67.7516L69.7321 77.1988H80.7521L86.2578 67.7516L80.7521 58.3086Z" fill="#EBEBEB"/>
<path d="M70.6313 69.6057C70.1389 69.0674 69.6423 68.5207 69.2827 67.8849C68.9231 67.2492 68.709 66.5117 68.8289 65.7912C68.8974 65.3716 69.0772 64.9732 69.1072 64.5494C69.1457 63.9645 68.8974 63.3541 69.1072 62.8074C69.4325 61.9513 70.597 61.8199 71.3034 61.2307C71.8514 60.7688 72.1212 60.0228 72.7248 59.6371C73.2514 59.2981 73.9321 59.3065 74.5529 59.3955C75.1737 59.4845 75.803 59.6371 76.4238 59.5566C76.8691 59.4973 77.2844 59.3193 77.721 59.2133C78.1577 59.1073 78.6415 59.0777 79.0268 59.3023C79.4121 59.5269 79.6305 60.0694 79.3779 60.4339C80.1014 60.1033 81.0176 60.6628 81.2146 61.4215C81.4115 62.1844 81.0176 63.0066 80.4054 63.511C79.7932 64.0153 79.0011 64.2484 78.2219 64.3925C76.0128 64.8036 73.611 64.5705 71.7059 63.388" fill="#263238"/>
<path d="M80.8463 71.9401C80.7735 70.5881 80.3882 67.8163 80.0157 65.3114C79.6133 62.6158 77.1858 60.6832 74.4415 60.8654L74.1675 60.8824C71.2391 61.2469 69.9162 63.9128 70.3658 66.8033L71.2263 77.2084H78.376C78.376 77.2084 78.209 75.3817 78.2047 75.3647C78.2047 75.3605 81.0004 74.7374 80.8463 71.9401Z" fill="#FFBE9D"/>
<path d="M78.2047 75.3121C78.2047 75.3121 76.428 75.5749 74.4501 74.5195C74.4501 74.5195 75.4562 76.4734 78.2604 76.0369L78.2047 75.3121Z" fill="#EB996E"/>
<path d="M79.1038 67.7029C79.1252 67.9148 78.9625 68.1055 78.7399 68.131C78.5172 68.1564 78.3203 68.0081 78.2989 67.7961C78.2775 67.5842 78.4402 67.3935 78.6585 67.3681C78.8854 67.3426 79.0824 67.491 79.1038 67.7029Z" fill="#263238"/>
<path d="M79.5018 66.7186C79.4547 66.7737 79.1336 66.5702 78.7012 66.5999C78.2688 66.6253 77.9649 66.8669 77.9135 66.8161C77.8878 66.7949 77.9349 66.6974 78.0633 66.5872C78.1918 66.477 78.4187 66.3668 78.6884 66.3498C78.9581 66.3329 79.1936 66.4176 79.3306 66.5109C79.4719 66.5999 79.5232 66.6931 79.5018 66.7186Z" fill="#263238"/>
<path d="M75.0023 68.0037C75.0237 68.2156 74.861 68.4063 74.6384 68.4318C74.4158 68.4572 74.2189 68.3088 74.1974 68.0969C74.176 67.885 74.3387 67.6943 74.5571 67.6689C74.784 67.6434 74.9809 67.7918 75.0023 68.0037Z" fill="#263238"/>
<path d="M75.2378 67.0838C75.1907 67.1389 74.8696 66.9355 74.4372 66.9651C74.0048 66.9906 73.7008 67.2321 73.6494 67.1813C73.6237 67.1601 73.6708 67.0626 73.8036 66.9524C73.932 66.8422 74.1589 66.732 74.4286 66.7151C74.6983 66.6981 74.9338 66.7829 75.0708 66.8761C75.2078 66.9651 75.2592 67.0584 75.2378 67.0838Z" fill="#263238"/>
<path d="M77.0273 70.1569C77.023 70.1315 77.2884 70.0679 77.7251 69.9832C77.8364 69.9662 77.9392 69.9365 77.952 69.8602C77.9734 69.7797 77.9178 69.6653 77.8578 69.5381C77.7337 69.2796 77.6095 69.0083 77.4725 68.7244C76.9374 67.5631 76.5392 66.6094 76.5863 66.5882C76.6334 66.5671 77.1086 67.491 77.6438 68.6523C77.7722 68.9405 77.8964 69.2118 78.0162 69.4745C78.0676 69.5975 78.149 69.7331 78.1019 69.9026C78.0762 69.9874 77.9991 70.051 77.9306 70.0764C77.8621 70.1018 77.7979 70.1061 77.7422 70.1145C77.3056 70.1612 77.0316 70.1823 77.0273 70.1569Z" fill="#263238"/>
<path d="M75.2336 65.3955C75.1993 65.5142 74.7626 65.4888 74.2574 65.582C73.748 65.6668 73.3498 65.8405 73.2728 65.7431C73.2385 65.6964 73.3027 65.582 73.4611 65.4549C73.6195 65.3319 73.8721 65.2048 74.1761 65.1539C74.4801 65.0988 74.7626 65.1285 74.9553 65.1921C75.1479 65.2556 75.2507 65.3404 75.2336 65.3955Z" fill="#263238"/>
<path d="M79.2579 65.4948C79.1894 65.5965 78.8812 65.5159 78.5216 65.5329C78.1619 65.5414 77.8622 65.6431 77.7852 65.5456C77.7509 65.499 77.7937 65.3973 77.9179 65.2956C78.0421 65.1938 78.2561 65.1048 78.5044 65.0963C78.7527 65.0879 78.9711 65.1642 79.1038 65.2532C79.2365 65.3464 79.2879 65.4439 79.2579 65.4948Z" fill="#263238"/>
<path d="M70.7383 68.8542C70.6869 68.8372 68.756 68.4134 68.9487 70.3249C69.1413 72.2321 71.2306 71.6133 71.2263 71.5582C71.2263 71.4989 70.7383 68.8542 70.7383 68.8542Z" fill="#FFBE9D"/>
<path d="M70.3701 70.9228C70.3615 70.9186 70.3401 70.9483 70.2844 70.9822C70.2331 71.0118 70.1389 71.0373 70.0318 71.0118C69.822 70.9567 69.6165 70.6558 69.5737 70.3125C69.5523 70.1387 69.5737 69.9692 69.6208 69.8293C69.6636 69.6852 69.7493 69.5793 69.8477 69.5496C69.9462 69.5157 70.0275 69.5708 70.0532 69.6217C70.0832 69.6725 70.0746 69.7107 70.0875 69.7149C70.0918 69.7191 70.126 69.681 70.1003 69.6005C70.0875 69.5623 70.0618 69.5199 70.0104 69.4903C69.9591 69.4564 69.8905 69.4436 69.8178 69.4606C69.6722 69.486 69.548 69.6344 69.4967 69.7912C69.4367 69.948 69.4068 70.1387 69.4325 70.3337C69.4838 70.7152 69.7193 71.0585 70.0061 71.1093C70.1431 71.1305 70.2545 71.0796 70.3101 71.0288C70.3743 70.9695 70.3786 70.9228 70.3701 70.9228Z" fill="#EB996E"/>
<path d="M79.8745 62.6917C79.7417 63.4503 78.1876 64.1454 76.8947 64.1115C75.7045 64.0776 75.118 63.4927 74.2532 63.0773C73.7052 62.8146 73.7052 62.8146 72.9645 62.9332C72.3651 63.0307 72.0526 63.73 71.7144 64.2302C72.3566 65.6161 72.0954 67.2267 71.8257 68.727C71.7957 68.8923 71.7572 69.0703 71.6288 69.1848C71.4104 69.3755 71.0593 69.2611 70.8496 69.0661C70.5071 68.7567 70.3529 68.299 70.2416 67.8539C69.9848 66.841 69.8906 65.7814 70.049 64.7515C70.2117 63.7216 70.6398 62.7171 71.3548 61.9499C72.2453 60.9878 73.5425 60.4326 74.8611 60.3648C76.1755 60.297 77.4984 60.6996 78.5986 61.4159C79.1038 61.7508 79.5833 62.1576 79.8745 62.6917Z" fill="#263238"/>
<path d="M77.3143 71.1256C76.9846 70.973 76.6592 70.8247 76.3296 70.6721C76.2739 70.6467 76.214 70.6212 76.1498 70.6255C76.0813 70.6339 76.0256 70.6848 75.9785 70.7399C75.7516 71.0112 75.6917 71.4265 75.8715 71.7359C76.047 72.0453 76.4623 72.2064 76.7919 72.0707C77.1387 71.9266 77.31 71.5282 77.3357 71.1553L77.3143 71.1256Z" fill="#EB996E"/>
<path d="M76.8262 72.1417C76.8434 72.1586 76.6207 72.2985 76.2483 72.1925C76.0685 72.1374 75.863 72.0018 75.7388 71.7814C75.6104 71.5652 75.5633 71.2601 75.6746 70.9846C75.726 70.849 75.8116 70.7261 75.9143 70.6328C75.9657 70.5862 76.0171 70.5438 76.0813 70.5099C76.1455 70.4633 76.2782 70.459 76.3382 70.4929C76.5608 70.6159 76.7149 70.7218 76.8648 70.8193C77.1516 71.01 77.3229 71.1372 77.3057 71.1668C77.2886 71.1923 77.0917 71.1117 76.7834 70.9549C76.6036 70.8617 76.4324 70.7727 76.2568 70.6837C76.214 70.671 76.2183 70.671 76.1798 70.6922C76.1412 70.7176 76.0942 70.7515 76.0599 70.7896C75.9828 70.8659 75.9186 70.9592 75.8801 71.0651C75.7945 71.277 75.8244 71.5101 75.9186 71.6882C76.0128 71.8662 76.1584 71.9848 76.3039 72.0484C76.5993 72.1713 76.8177 72.1035 76.8262 72.1417Z" fill="#263238"/>
<path d="M76.5137 67.7532C76.4923 67.7532 76.4966 67.5752 76.4067 67.2785C76.3211 66.9861 76.1156 66.558 75.6703 66.2317C75.2379 65.9053 74.5315 65.7231 73.8508 65.9774C73.1743 66.2105 72.5921 66.9225 72.6006 67.7532C72.5921 68.5839 73.1743 69.296 73.8508 69.5291C74.5315 69.7834 75.2379 69.6011 75.6703 69.2748C76.1156 68.9484 76.3253 68.5204 76.4067 68.2279C76.4966 67.9312 76.4923 67.7532 76.5137 67.7532C76.5223 67.7532 76.5266 67.7956 76.5308 67.8804C76.5351 67.9651 76.5266 68.0923 76.4923 68.2491C76.4281 68.5627 76.2354 69.029 75.7645 69.3977C75.3107 69.7664 74.5358 69.9868 73.778 69.7198C73.0245 69.474 72.3652 68.6814 72.3737 67.7532C72.3652 66.825 73.0245 66.0325 73.778 65.7866C74.5401 65.5154 75.3107 65.7358 75.7645 66.1088C76.2354 66.4775 76.4281 66.9479 76.4923 67.2573C76.5266 67.4142 76.5351 67.5413 76.5308 67.6261C76.5266 67.7108 76.5223 67.7532 76.5137 67.7532Z" fill="#263238"/>
<path d="M81.3215 67.5652C81.3001 67.5652 81.3001 67.3914 81.2187 67.1032C81.1374 66.8193 80.9362 66.4039 80.4995 66.086C80.0799 65.7682 79.3906 65.5944 78.727 65.8402C78.0677 66.0649 77.5026 66.7599 77.5112 67.5695C77.5026 68.379 78.072 69.0698 78.727 69.2987C79.3906 69.5445 80.0799 69.3707 80.4995 69.0529C80.9362 68.735 81.1374 68.3196 81.2187 68.0357C81.3044 67.739 81.3001 67.5652 81.3215 67.5652C81.33 67.5652 81.3343 67.6076 81.3386 67.6924C81.3429 67.7729 81.3343 67.8958 81.3044 68.0526C81.2444 68.3578 81.056 68.8113 80.5979 69.1758C80.157 69.536 79.4035 69.7522 78.6585 69.4894C77.9222 69.2478 77.28 68.4765 77.2885 67.5695C77.28 66.6625 77.9222 65.8911 78.6585 65.6495C79.3992 65.3867 80.1527 65.6029 80.5979 65.9631C81.056 66.3234 81.2444 66.7811 81.3044 67.0863C81.3386 67.2389 81.3429 67.3618 81.3386 67.4465C81.3343 67.5228 81.33 67.5652 81.3215 67.5652Z" fill="#263238"/>
<path d="M77.4 67.1307C77.3571 67.1731 77.1645 67.0502 76.9076 67.0587C76.6507 67.0587 76.4666 67.19 76.4196 67.1477C76.3596 67.118 76.5394 66.8425 76.9033 66.834C77.2672 66.8298 77.4556 67.0968 77.4 67.1307Z" fill="#263238"/>
<path d="M72.6092 67.4732C72.6477 67.524 72.271 67.8589 71.7744 68.2276C71.2777 68.5963 70.841 68.8549 70.8068 68.804C70.7683 68.7532 71.145 68.4183 71.6416 68.0496C72.1383 67.6809 72.5707 67.4223 72.6092 67.4732Z" fill="#263238"/>
<path d="M112.348 67.659C112.348 67.7184 107.394 67.7692 101.285 67.7692C95.1757 67.7692 90.2223 67.7184 90.2223 67.659C90.2223 67.5997 95.1757 67.5488 101.285 67.5488C107.394 67.5488 112.348 67.5954 112.348 67.659Z" fill="#263238"/>
<path d="M102.116 69.9503C102.116 70.0096 99.4869 70.0605 96.2417 70.0605C92.9965 70.0605 90.3678 70.0096 90.3678 69.9503C90.3678 69.891 92.9965 69.8401 96.2417 69.8401C99.4869 69.8359 102.116 69.8867 102.116 69.9503Z" fill="#263238"/>
<path d="M178.622 84.5898C178.622 84.5898 184.5 87.4253 186.568 94.7491C188.636 102.073 194.955 121.145 194.955 121.145C194.955 121.145 198.568 125.354 198.958 128.469C199.343 131.584 198.573 139.124 197.408 140.532C196.248 141.939 194.591 141.706 194.591 141.706L179.38 140.277L173.39 100.573L178.622 84.5898Z" fill="#8C63A9"/>
<path d="M128.326 83.9005C128.326 83.9005 117.451 87.2784 114.741 90.2156L123.646 131.23L123.505 144.169H175.068C175.068 143.529 175.531 101.206 175.531 101.206L178.63 84.5956L160.302 81.3999L156.689 78.5898L136.297 79.6113L133.198 82.6798L128.326 83.9005Z" fill="#8C63A9"/>
<g opacity="0.3">
<path opacity="0.3" d="M132.457 119.48C132.299 119.132 132.072 118.755 131.695 118.679C131.074 118.552 130.659 119.281 130.449 119.87C128.775 124.566 126.557 128.885 123.676 132.962L123.543 139.26C126.549 136.755 129.512 134.072 131.43 130.677C133.339 127.282 134.075 123.023 132.457 119.48Z" fill="black"/>
</g>
<path d="M114.737 90.2148C114.737 90.2148 111.154 95.0508 109.664 98.2083C108.174 101.366 95.8437 127.881 95.1031 130.619C94.3581 133.357 92.4444 141.982 98.0785 143.982H109.664L121.292 120.701L121.887 93.6818L114.737 90.2148Z" fill="#8C63A9"/>
<path d="M110.409 127.164C110.391 127.181 110.152 126.939 109.616 126.639C109.086 126.342 108.255 125.999 107.185 125.765C106.65 125.651 106.054 125.558 105.412 125.52C104.77 125.481 104.081 125.49 103.379 125.651C101.974 125.96 100.579 126.842 99.4785 128.075C98.361 129.309 97.6761 130.767 97.2693 132.14C96.8583 133.517 96.6828 134.81 96.5715 135.891C96.4645 136.976 96.4216 137.857 96.3831 138.468C96.366 138.752 96.3489 138.985 96.3403 139.171C96.3275 139.332 96.3189 139.417 96.3103 139.417C96.3018 139.417 96.2975 139.332 96.2975 139.171C96.2975 138.985 96.2975 138.752 96.3018 138.468C96.3146 137.857 96.3317 136.972 96.4174 135.878C96.5073 134.789 96.67 133.483 97.0724 132.081C97.4705 130.686 98.1684 129.19 99.3115 127.927C100.437 126.664 101.876 125.761 103.336 125.452C104.064 125.291 104.774 125.287 105.425 125.337C106.076 125.384 106.68 125.486 107.219 125.613C108.302 125.867 109.133 126.236 109.659 126.562C109.92 126.728 110.113 126.876 110.233 126.986C110.353 127.096 110.413 127.16 110.409 127.164Z" fill="#263238"/>
<path d="M104.916 122.527C104.916 122.51 105.053 122.489 105.305 122.463C105.558 122.434 105.926 122.425 106.38 122.451C106.834 122.472 107.373 122.548 107.96 122.684C108.542 122.828 109.176 123.04 109.805 123.332C110.43 123.633 110.995 123.985 111.475 124.345C111.95 124.714 112.348 125.078 112.652 125.417C112.956 125.752 113.183 126.04 113.316 126.252C113.453 126.464 113.525 126.583 113.513 126.591C113.478 126.617 113.166 126.155 112.536 125.523C112.224 125.206 111.821 124.858 111.351 124.51C110.871 124.167 110.319 123.828 109.707 123.536C109.09 123.247 108.478 123.04 107.908 122.887C107.335 122.743 106.812 122.654 106.367 122.616C105.477 122.523 104.916 122.569 104.916 122.527Z" fill="#263238"/>
<path d="M115.388 121.251C115.383 121.268 115.195 121.251 114.852 121.208C114.51 121.166 114.013 121.115 113.401 121.068C112.177 120.975 110.473 120.954 108.606 121.174C106.744 121.399 105.091 121.819 103.922 122.191C103.336 122.378 102.865 122.543 102.544 122.666C102.223 122.785 102.039 122.844 102.034 122.831C102.03 122.819 102.197 122.73 102.514 122.586C102.826 122.437 103.289 122.251 103.875 122.043C105.04 121.628 106.701 121.179 108.585 120.954C110.464 120.734 112.19 120.78 113.418 120.912C114.035 120.975 114.531 121.051 114.87 121.119C115.208 121.195 115.392 121.238 115.388 121.251Z" fill="#263238"/>
<path d="M148.392 98.6002C148.388 98.6045 148.349 98.5578 148.272 98.4604C148.191 98.3502 148.084 98.2103 147.955 98.0408C147.673 97.6509 147.279 97.1126 146.791 96.4429C145.789 95.0443 144.398 93.0989 142.754 90.8059L142.933 90.7805C142.308 92.5945 141.619 94.5993 140.895 96.7057L140.848 96.8371L140.733 96.7608C140.656 96.7142 140.574 96.6591 140.493 96.6082C139.534 96.0064 138.686 95.2816 137.971 94.4975C137.256 93.7092 136.661 92.87 136.169 92.0308C135.184 90.3482 134.589 88.691 134.187 87.2881C133.784 85.881 133.574 84.7112 133.437 83.9102C133.369 83.5245 133.318 83.2193 133.275 82.9862C133.253 82.8803 133.232 82.804 133.219 82.7489C133.198 82.7023 133.189 82.6726 133.193 82.6726C133.241 82.6514 133.365 83.0964 133.523 83.8975C133.69 84.6943 133.921 85.8556 134.341 87.25C134.76 88.6402 135.364 90.2804 136.349 91.9333C136.841 92.7598 137.428 93.5821 138.134 94.3577C138.845 95.1248 139.675 95.8368 140.613 96.426C140.694 96.4768 140.776 96.5277 140.848 96.5743L140.686 96.6336C141.418 94.5272 142.111 92.5267 142.741 90.7169L142.805 90.5262L142.92 90.6915C144.535 93.0014 145.905 94.9638 146.889 96.3751C147.36 97.0575 147.733 97.6085 148.007 98.0069C148.126 98.1849 148.221 98.329 148.298 98.4434C148.362 98.5451 148.396 98.596 148.392 98.6002Z" fill="#263238"/>
<g opacity="0.3">
<path opacity="0.3" d="M161.814 118.174C161.334 122.917 162.392 127.799 164.793 131.927C167.191 136.06 170.71 139.738 175.09 141.718C175.231 137.509 175.026 132.55 175.167 128.342L161.814 118.174Z" fill="black"/>
</g>
<path d="M161.33 112.635C161.33 112.635 159.459 113.147 160.863 116.949C162.267 120.747 162.734 120.518 163.672 124.074C164.609 127.626 165.701 130.872 167.341 132.881C168.98 134.89 175.068 138.984 175.068 138.984L180.531 133.886C180.531 133.886 179.632 130.084 179.846 127.503C180.06 124.922 180.608 118.585 180.531 117.504C180.454 116.424 179.281 113.796 179.281 113.796V111.999L176.473 103.442C176.473 103.442 174.91 102.747 174.366 105.218L173.429 102.594C173.429 102.594 171.947 102.361 171.558 105.374C171.168 108.388 171.87 112.558 171.87 112.558L171.091 117.814L169.922 121.366L168.908 121.518C168.908 121.518 167.379 121.107 166.544 118.259C165.701 115.415 163.436 112.016 161.33 112.635Z" fill="#FFBE9D"/>
<path d="M178.699 126.07C178.695 126.07 178.686 126.002 178.673 125.875C178.665 125.727 178.652 125.54 178.635 125.307C178.605 124.79 178.566 124.074 178.519 123.179C178.434 121.336 178.318 118.767 178.181 115.771L178.207 115.834C177.954 115.538 177.509 115.449 177.102 115.55C176.687 115.648 176.319 115.902 176.087 116.284C175.612 117.042 175.582 118.034 175.437 118.992C175.141 121.158 174.859 123.217 174.602 125.099C174.473 126.036 174.336 126.93 174.148 127.757C173.968 128.583 173.716 129.338 173.472 130.011C173.232 130.685 173.018 131.296 172.885 131.847C172.752 132.398 172.697 132.881 172.709 133.279C172.727 134.076 172.962 134.483 172.924 134.491C172.915 134.496 172.872 134.394 172.791 134.195C172.727 133.991 172.637 133.686 172.62 133.283C172.594 132.881 172.637 132.381 172.761 131.821C172.885 131.262 173.091 130.643 173.322 129.965C173.557 129.287 173.797 128.545 173.968 127.723C174.144 126.905 174.272 126.015 174.396 125.078C174.649 123.196 174.923 121.136 175.214 118.971C175.283 118.487 175.334 118.013 175.42 117.534C175.505 117.059 175.638 116.584 175.903 116.178C176.152 115.762 176.588 115.457 177.051 115.351C177.509 115.237 178.052 115.338 178.365 115.711L178.386 115.741V115.775C178.489 118.771 178.579 121.34 178.643 123.188C178.665 124.082 178.686 124.798 178.699 125.32C178.703 125.553 178.703 125.739 178.703 125.888C178.708 126.006 178.703 126.07 178.699 126.07Z" fill="#EB996E"/>
<path d="M175.711 116.334C175.698 116.338 175.612 116.169 175.479 115.851C175.351 115.533 175.18 115.063 175.021 114.465C174.863 113.872 174.713 113.147 174.627 112.337C174.585 111.93 174.555 111.498 174.606 111.049C174.653 110.6 174.786 110.125 175.077 109.722C175.325 109.375 175.676 109.095 176.075 108.981L176.16 108.955L176.203 109.031C176.995 110.413 177.68 111.634 178.164 112.511C178.386 112.922 178.571 113.265 178.725 113.549C178.853 113.795 178.917 113.931 178.904 113.939C178.892 113.948 178.806 113.821 178.656 113.588C178.489 113.316 178.284 112.982 178.04 112.583C177.522 111.723 176.811 110.519 176.01 109.142L176.139 109.192C175.796 109.294 175.484 109.536 175.261 109.854C175 110.218 174.872 110.65 174.824 111.074C174.777 111.502 174.799 111.922 174.833 112.32C174.906 113.121 175.034 113.838 175.175 114.431C175.312 115.024 175.458 115.499 175.561 115.825C175.668 116.148 175.728 116.33 175.711 116.334Z" fill="#EB996E"/>
<path d="M174.405 117.034C174.388 117.034 174.371 116.86 174.353 116.542C174.341 116.178 174.319 115.728 174.298 115.199C174.259 114.063 174.225 112.494 174.199 110.761C174.187 109.028 174.118 107.455 174.268 106.315C174.341 105.747 174.456 105.294 174.559 104.993C174.662 104.687 174.747 104.535 174.76 104.539C174.799 104.552 174.52 105.209 174.422 106.336C174.315 107.459 174.405 109.028 174.418 110.761C174.443 112.494 174.452 114.063 174.452 115.199C174.448 115.728 174.439 116.178 174.435 116.546C174.431 116.856 174.422 117.03 174.405 117.034Z" fill="#EB996E"/>
<path d="M169.785 131.277C169.755 131.252 170.094 130.853 170.518 130.129C170.732 129.768 170.95 129.319 171.151 128.811C171.344 128.294 171.519 127.713 171.639 127.09C171.751 126.463 171.789 125.861 171.789 125.31C171.78 124.759 171.733 124.263 171.661 123.856C171.519 123.034 171.34 122.542 171.378 122.529C171.391 122.525 171.447 122.644 171.532 122.864C171.622 123.085 171.721 123.415 171.815 123.826C171.909 124.242 171.973 124.746 171.995 125.306C172.007 125.869 171.969 126.488 171.858 127.128C171.738 127.768 171.554 128.361 171.344 128.883C171.125 129.4 170.886 129.853 170.65 130.209C170.419 130.565 170.209 130.841 170.047 131.015C169.892 131.193 169.798 131.286 169.785 131.277Z" fill="#EB996E"/>
<path d="M179.375 128.621L184.115 130.249C184.115 130.249 188.64 127.93 191.761 130.249C194.882 132.567 197.592 138.674 196.736 141.145C196.736 141.145 194.582 143.777 192.943 144.163C191.303 144.549 184.933 143.023 182.282 142.468C179.624 141.912 175.06 138.975 175.06 138.975L179.375 128.621Z" fill="#FFBE9D"/>
<path d="M179.958 135.534C179.94 135.534 179.923 135.386 179.906 135.119C179.889 134.801 179.863 134.424 179.838 133.987C179.786 133.03 179.722 131.707 179.701 130.241C179.679 128.774 179.722 127.448 179.812 126.49C179.855 126.011 179.906 125.625 179.953 125.358C180 125.091 180.035 124.947 180.052 124.951C180.086 124.956 180.013 125.545 179.966 126.498C179.919 127.452 179.902 128.774 179.923 130.236C179.949 131.669 179.975 132.966 179.992 133.983C179.996 134.462 179.996 134.852 179.988 135.119C179.988 135.386 179.975 135.534 179.958 135.534Z" fill="#EB996E"/>
<path d="M195.588 130.064C195.554 130.098 195.066 129.429 194.013 128.657C192.973 127.886 191.286 127.064 189.291 126.953C187.291 126.848 185.523 127.479 184.406 128.132C183.271 128.784 182.715 129.395 182.685 129.361C182.676 129.352 182.809 129.196 183.074 128.941C183.344 128.687 183.759 128.348 184.324 128C185.442 127.301 187.249 126.623 189.304 126.737C191.359 126.852 193.08 127.721 194.111 128.534C194.634 128.941 195.015 129.327 195.25 129.607C195.486 129.891 195.601 130.06 195.588 130.064Z" fill="#263238"/>
<path d="M194.981 126.152C194.951 126.198 194.317 125.563 193.007 125.075C191.718 124.575 189.719 124.346 187.668 124.918C186.645 125.202 185.707 125.605 184.907 126.054C184.106 126.508 183.438 127.004 182.907 127.453C182.376 127.902 181.97 128.296 181.691 128.568C181.413 128.843 181.259 128.991 181.246 128.983C181.238 128.974 181.37 128.805 181.632 128.508C181.893 128.216 182.282 127.805 182.809 127.334C183.331 126.864 183.999 126.347 184.808 125.876C185.617 125.41 186.568 124.99 187.612 124.702C189.715 124.117 191.765 124.38 193.067 124.927C193.726 125.194 194.214 125.503 194.527 125.741C194.689 125.855 194.796 125.965 194.873 126.033C194.946 126.109 194.985 126.147 194.981 126.152Z" fill="#263238"/>
<path d="M195.019 122.761C195.006 122.804 194.18 122.554 192.801 122.371C192.112 122.274 191.286 122.219 190.37 122.219C189.453 122.231 188.447 122.308 187.403 122.482C186.362 122.668 185.391 122.939 184.521 123.236C183.661 123.545 182.903 123.876 182.291 124.202C181.062 124.842 180.369 125.355 180.343 125.321C180.334 125.308 180.501 125.177 180.818 124.944C180.972 124.825 181.169 124.69 181.405 124.546C181.64 124.401 181.906 124.223 182.214 124.067C182.822 123.723 183.584 123.376 184.449 123.049C185.322 122.74 186.307 122.46 187.36 122.27C188.417 122.092 189.436 122.02 190.365 122.02C191.294 122.032 192.129 122.104 192.819 122.223C193.165 122.265 193.474 122.346 193.748 122.401C194.022 122.456 194.253 122.52 194.437 122.575C194.818 122.681 195.023 122.749 195.019 122.761Z" fill="#263238"/>
<path d="M158.701 81.2578C158.701 81.2578 158.919 81.6647 159.031 82.5039C159.146 83.3388 159.129 84.5934 158.851 86.1446C158.71 86.9202 158.521 87.7721 158.239 88.6834C157.943 89.5946 157.498 90.527 156.993 91.5018C155.974 93.4515 154.685 95.5749 153.2 97.8424L153.024 98.1094V97.7915C153.02 96.2954 153.02 94.723 153.016 93.087L153.183 93.1675C151.907 94.1847 150.567 95.257 149.184 96.3632L149.218 96.3124C148.293 99.2198 147.681 102.458 147.441 105.827C147.052 110.985 147.364 115.919 147.613 120.395C147.822 124.874 147.959 128.914 148.101 132.3C148.238 135.691 148.362 138.429 148.465 140.323C148.52 141.26 148.563 141.993 148.593 142.502C148.61 142.743 148.623 142.93 148.632 143.07C148.64 143.197 148.636 143.265 148.636 143.265C148.636 143.265 148.623 143.201 148.606 143.074C148.593 142.938 148.572 142.747 148.546 142.51C148.499 142.014 148.439 141.277 148.375 140.332C148.246 138.437 148.096 135.699 147.942 132.308C147.788 128.918 147.608 124.883 147.403 120.407C147.146 115.936 146.825 110.99 147.214 105.815C147.459 102.433 148.071 99.1775 149.008 96.253L149.017 96.2234L149.043 96.2022C150.425 95.1002 151.77 94.0321 153.046 93.0149L153.213 92.8835V93.0955C153.208 94.7272 153.208 96.2996 153.204 97.8L153.028 97.7492C155.97 93.2353 158.363 89.3106 158.731 86.1361C159.026 84.5976 159.061 83.3558 158.962 82.5208C158.919 82.1012 158.838 81.7918 158.787 81.5799C158.727 81.3638 158.701 81.2578 158.701 81.2578Z" fill="#263238"/>
<path d="M151.021 135.93L150.866 135.926C150.246 135.943 149.693 136.502 149.693 137.117C149.693 137.731 150.241 138.295 150.858 138.316C151.479 138.337 152.065 137.812 152.104 137.202C152.151 136.587 151.637 135.989 151.021 135.93Z" fill="white"/>
<path d="M151.021 119.596L150.866 119.592C150.246 119.609 149.693 120.168 149.693 120.783C149.693 121.397 150.241 121.961 150.858 121.982C151.479 122.003 152.065 121.478 152.104 120.868C152.151 120.253 151.637 119.655 151.021 119.596Z" fill="white"/>
<path d="M150.862 104.982C151.483 105.003 152.069 104.478 152.108 103.867C152.151 103.257 151.637 102.659 151.021 102.6L150.866 102.596C150.246 102.613 149.693 103.172 149.693 103.787C149.693 104.397 150.241 104.961 150.862 104.982Z" fill="white"/>
<path d="M132.376 62.1218C130.873 60.4774 129.362 58.8117 128.266 56.879C127.17 54.9464 126.519 52.6873 126.883 50.5003C127.093 49.2204 127.645 48.004 127.731 46.7113C127.85 44.9312 127.097 43.0706 127.731 41.4049C128.728 38.7983 132.273 38.3957 134.422 36.5944C136.096 35.1915 136.91 32.9155 138.755 31.733C140.365 30.7031 142.432 30.7243 144.329 30.9913C146.226 31.2583 148.135 31.733 150.036 31.4787C151.389 31.2965 152.665 30.7582 153.992 30.4319C155.319 30.1055 156.796 30.0208 157.978 30.6989C159.159 31.377 159.823 33.0384 159.048 34.1531C161.248 33.1486 164.044 34.8482 164.648 37.1708C165.251 39.4934 164.044 42.0067 162.178 43.5368C160.311 45.0711 157.901 45.7831 155.52 46.2281C148.777 47.4869 141.465 46.7749 135.655 43.1638" fill="#263238"/>
<path d="M156.081 84.5687C155.751 82.0426 155.482 79.9362 155.465 79.6734C155.465 79.6734 163.993 77.7746 163.522 69.2386C163.295 65.1147 162.126 56.6508 160.983 49.0091C159.754 40.8037 152.352 34.9124 143.991 35.4634L143.16 35.5185C134.229 36.6289 130.197 44.7581 131.567 53.5653L136.383 83.0937C136.383 83.0937 138.438 89.625 142.839 90.7566L148.388 98.606L149.304 95.2281L153.439 91.6636C153.439 91.6636 154.39 90.6464 155.477 88.6587C156.376 87.0354 156.188 85.3612 156.081 84.5687Z" fill="#FFBE9D"/>
<path d="M155.469 79.5428C155.469 79.5428 150.053 80.3438 144.021 77.127C144.021 77.127 147.09 83.0903 155.636 81.751L155.469 79.5428Z" fill="#EB996E"/>
<path d="M158.213 56.3434C158.282 56.9834 157.785 57.5683 157.108 57.653C156.432 57.7336 155.833 57.2801 155.764 56.6401C155.7 56.0001 156.192 55.411 156.864 55.3304C157.545 55.2457 158.145 55.7034 158.213 56.3434Z" fill="#263238"/>
<path d="M159.416 53.3227C159.275 53.4922 158.294 52.8692 156.972 52.9624C155.649 53.0345 154.72 53.772 154.565 53.6236C154.488 53.5558 154.625 53.2591 155.028 52.9285C155.426 52.598 156.115 52.2547 156.942 52.2038C157.768 52.1529 158.483 52.4072 158.902 52.6912C159.33 52.9667 159.485 53.2464 159.416 53.3227Z" fill="#263238"/>
<path d="M145.703 57.2145C145.772 57.8545 145.275 58.4394 144.599 58.5241C143.922 58.6047 143.323 58.1512 143.254 57.5112C143.19 56.8712 143.682 56.282 144.359 56.2015C145.035 56.1168 145.639 56.5745 145.703 57.2145Z" fill="#263238"/>
<path d="M146.418 54.4106C146.277 54.5801 145.296 53.9571 143.974 54.0503C142.651 54.1224 141.722 54.8599 141.568 54.7115C141.49 54.6437 141.627 54.347 142.03 54.0164C142.424 53.6859 143.117 53.3425 143.939 53.2917C144.766 53.2408 145.481 53.4951 145.9 53.7791C146.328 54.0546 146.487 54.3343 146.418 54.4106Z" fill="#263238"/>
<path d="M151.877 63.8363C151.864 63.7642 152.677 63.565 154 63.3107C154.334 63.2556 154.651 63.1666 154.694 62.9335C154.758 62.6877 154.591 62.3359 154.403 61.9544C154.03 61.1661 153.641 60.3396 153.23 59.4708C151.594 55.9318 150.387 53.0158 150.533 52.9522C150.678 52.8887 152.117 55.7029 153.752 59.2419C154.146 60.115 154.523 60.9457 154.882 61.7425C155.036 62.1155 155.285 62.5309 155.148 63.0437C155.075 63.298 154.839 63.4972 154.625 63.5692C154.411 63.6498 154.223 63.6667 154.056 63.6879C152.72 63.849 151.89 63.9083 151.877 63.8363Z" fill="#263238"/>
<path d="M146.41 49.2573C146.303 49.6218 144.971 49.5413 143.43 49.8295C141.884 50.088 140.66 50.6221 140.433 50.3127C140.33 50.1643 140.527 49.8168 141.011 49.4353C141.49 49.0581 142.27 48.6767 143.194 48.5114C144.119 48.3503 144.984 48.4393 145.566 48.63C146.148 48.825 146.457 49.0878 146.41 49.2573Z" fill="#263238"/>
<path d="M158.671 49.5559C158.457 49.8696 157.524 49.6195 156.428 49.6788C155.327 49.7 154.416 50.0137 154.18 49.717C154.077 49.5729 154.201 49.2635 154.591 48.9541C154.972 48.6489 155.627 48.3734 156.381 48.3438C157.134 48.3183 157.806 48.543 158.209 48.8227C158.62 49.1067 158.765 49.4033 158.671 49.5559Z" fill="#263238"/>
<path d="M132.697 59.8185C132.547 59.7634 126.66 58.475 127.242 64.2984C127.825 70.1177 134.195 68.2231 134.191 68.0536C134.182 67.8841 132.697 59.8185 132.697 59.8185Z" fill="#FFBE9D"/>
<path d="M131.584 66.1563C131.558 66.1393 131.489 66.2368 131.323 66.3343C131.16 66.4275 130.877 66.5081 130.56 66.4233C129.918 66.258 129.297 65.3341 129.165 64.2872C129.096 63.7574 129.16 63.2446 129.306 62.808C129.443 62.363 129.691 62.0409 130 61.9561C130.304 61.8544 130.543 62.0197 130.633 62.1765C130.727 62.3333 130.702 62.452 130.736 62.4562C130.753 62.469 130.852 62.346 130.783 62.1087C130.749 61.9943 130.663 61.8671 130.513 61.7654C130.359 61.6637 130.149 61.6298 129.931 61.6721C129.482 61.7484 129.113 62.2019 128.951 62.6809C128.762 63.164 128.681 63.7447 128.758 64.338C128.912 65.5078 129.627 66.5462 130.505 66.703C130.929 66.7708 131.263 66.614 131.425 66.4572C131.588 66.2962 131.605 66.1648 131.584 66.1563Z" fill="#EB996E"/>
<path d="M160.551 41.0475C160.148 43.3658 155.4 45.485 151.466 45.3748C147.84 45.2688 146.046 43.4887 143.408 42.2215C141.739 41.4204 141.739 41.4204 139.478 41.7849C137.646 42.0816 136.7 44.2177 135.672 45.7478C137.629 49.9734 136.837 54.8856 136.01 59.463C135.921 59.9673 135.805 60.5141 135.415 60.8532C134.756 61.4296 133.681 61.0863 133.035 60.4971C131.995 59.5562 131.519 58.1533 131.181 56.8013C130.406 53.7158 130.107 50.482 130.599 47.3371C131.091 44.1923 132.406 41.1407 134.576 38.7927C137.286 35.8597 141.251 34.1686 145.262 33.9652C149.274 33.7618 153.302 34.9909 156.659 37.1694C158.213 38.1739 159.669 39.4242 160.551 41.0475Z" fill="#263238"/>
<path d="M152.746 66.7643C151.748 66.3023 150.747 65.8403 149.749 65.3826C149.578 65.3021 149.394 65.2215 149.205 65.247C148.991 65.2766 148.824 65.4335 148.687 65.5945C147.994 66.4295 147.818 67.684 148.353 68.6249C148.893 69.5658 150.156 70.0617 151.166 69.6464C152.228 69.2098 152.746 67.9892 152.827 66.8533L152.746 66.7643Z" fill="#EB996E"/>
<path d="M151.26 69.8596C151.269 69.8851 151.123 69.9698 150.824 70.0334C150.528 70.0885 150.066 70.1139 149.535 69.9402C149.008 69.7749 148.413 69.368 148.045 68.7153C147.673 68.0795 147.536 67.1852 147.861 66.3757C148.015 65.9731 148.259 65.6171 148.554 65.3373C148.704 65.1975 148.863 65.0788 149.043 64.9728C149.137 64.922 149.252 64.8711 149.389 64.8626C149.522 64.8542 149.642 64.8881 149.736 64.9305C149.933 65.0152 150.057 65.1085 150.203 65.1932C150.344 65.278 150.477 65.3628 150.609 65.4433C150.866 65.6043 151.11 65.7527 151.337 65.8968C152.228 66.4562 152.759 66.825 152.729 66.8801C152.699 66.9309 152.108 66.6554 151.179 66.168C150.943 66.0409 150.691 65.9053 150.421 65.7612C150.284 65.6849 150.143 65.6086 150.002 65.5323C149.86 65.456 149.702 65.3585 149.578 65.3119C149.441 65.2653 149.381 65.2695 149.248 65.3416C149.115 65.4221 148.974 65.5323 148.854 65.651C148.606 65.8925 148.405 66.1935 148.272 66.5368C147.998 67.2192 148.096 67.9609 148.4 68.5246C148.7 69.0925 149.184 69.4655 149.638 69.6519C150.096 69.8427 150.515 69.8681 150.798 69.8681C151.089 69.8554 151.247 69.83 151.26 69.8596Z" fill="#263238"/>
<path d="M150.314 56.483C150.28 56.4872 150.318 55.9405 150.079 55.008C149.843 54.0968 149.227 52.7532 147.84 51.7106C147.15 51.202 146.285 50.7739 145.288 50.6002C144.299 50.4349 143.177 50.4645 142.116 50.8672C141.58 51.0537 141.062 51.3292 140.591 51.6809C140.112 52.0242 139.675 52.4523 139.316 52.9482C138.575 53.9272 138.155 55.1818 138.143 56.4745C138.155 57.7672 138.571 59.026 139.316 60.005C139.675 60.5009 140.112 60.929 140.591 61.2765C141.067 61.6283 141.58 61.908 142.116 62.0903C143.177 62.4929 144.299 62.5226 145.288 62.3573C146.285 62.1835 147.15 61.7554 147.84 61.2468C149.227 60.2085 149.843 58.8649 150.079 57.9494C150.318 57.0212 150.28 56.4787 150.314 56.483C150.318 56.483 150.318 56.5169 150.318 56.5804C150.318 56.661 150.314 56.7542 150.314 56.8686C150.314 56.9958 150.31 57.1526 150.276 57.3391C150.25 57.5256 150.229 57.7375 150.16 57.9749C150.062 58.4495 149.843 59.0132 149.496 59.6151C149.145 60.2127 148.636 60.84 147.934 61.374C147.236 61.9038 146.35 62.353 145.322 62.5395C144.303 62.7175 143.147 62.6921 142.047 62.2852C141.49 62.0988 140.955 61.8105 140.463 61.4503C139.966 61.0943 139.513 60.6535 139.14 60.1406C138.369 59.1277 137.933 57.8265 137.92 56.483C137.933 55.1394 138.369 53.8382 139.14 52.8253C139.513 52.3124 139.966 51.8717 140.463 51.5156C140.955 51.1554 141.49 50.8672 142.047 50.6807C143.152 50.2696 144.303 50.2441 145.322 50.4264C146.35 50.6129 147.236 51.0664 147.934 51.5919C148.636 52.126 149.145 52.7532 149.496 53.3508C149.843 53.9527 150.062 54.5164 150.16 54.9911C150.229 55.2242 150.25 55.4403 150.276 55.6268C150.306 55.8133 150.314 55.9701 150.314 56.0973C150.314 56.2117 150.318 56.3092 150.318 56.3855C150.318 56.4491 150.318 56.483 150.314 56.483Z" fill="#263238"/>
<path d="M164.973 55.9109C164.939 55.9151 164.977 55.3811 164.742 54.4741C164.511 53.5841 163.911 52.2744 162.559 51.2657C161.891 50.7698 161.047 50.3502 160.075 50.1849C159.112 50.0239 158.02 50.0535 156.984 50.4477C156.462 50.6257 155.961 50.897 155.499 51.2403C155.032 51.5751 154.608 51.9947 154.257 52.4779C153.534 53.4315 153.127 54.6521 153.114 55.9151C153.127 57.1782 153.534 58.3988 154.253 59.3524C154.604 59.8356 155.028 60.251 155.494 60.59C155.957 60.9333 156.458 61.2046 156.98 61.3826C158.016 61.7725 159.104 61.8064 160.071 61.6454C161.043 61.4758 161.886 61.0562 162.554 60.5646C163.907 59.5516 164.507 58.2462 164.733 57.3562C164.977 56.4407 164.939 55.9067 164.973 55.9109C164.982 55.9109 164.982 56.0423 164.977 56.2881C164.977 56.411 164.973 56.5679 164.943 56.7459C164.918 56.9281 164.896 57.1358 164.832 57.3647C164.622 58.2717 164.036 59.6237 162.661 60.679C161.981 61.1961 161.116 61.6369 160.114 61.8149C159.121 61.9887 157.995 61.9632 156.92 61.5648C156.381 61.3826 155.858 61.1029 155.379 60.7468C154.895 60.3993 154.454 59.9712 154.09 59.4711C153.337 58.4836 152.913 57.2163 152.904 55.9067C152.917 54.597 153.341 53.3298 154.094 52.3422C154.458 51.8421 154.899 51.4098 155.383 51.0665C155.863 50.7147 156.385 50.435 156.924 50.2527C157.999 49.8543 159.125 49.8289 160.118 50.0027C161.12 50.1849 161.985 50.6257 162.666 51.1386C164.04 52.1939 164.626 53.5417 164.836 54.4529C164.9 54.6818 164.926 54.8895 164.947 55.0717C164.977 55.2497 164.986 55.4066 164.982 55.5295C164.982 55.7795 164.982 55.9109 164.973 55.9109Z" fill="#263238"/>
<path d="M153.011 54.5743C152.986 54.5997 152.844 54.481 152.587 54.3581C152.331 54.2352 151.945 54.1165 151.509 54.125C151.076 54.1293 150.691 54.2649 150.438 54.3963C150.181 54.5277 150.049 54.6506 150.023 54.6294C150.002 54.6124 150.1 54.4429 150.357 54.2649C150.61 54.0869 151.021 53.9131 151.504 53.9046C151.984 53.8961 152.403 54.053 152.665 54.2225C152.921 54.392 153.028 54.5573 153.011 54.5743Z" fill="#263238"/>
<path d="M138.404 55.6173C138.442 55.6682 137.239 56.6176 135.719 57.7365C134.199 58.8597 132.941 59.7285 132.902 59.6819C132.864 59.631 134.067 58.6817 135.587 57.5627C137.106 56.4396 138.369 55.5665 138.404 55.6173Z" fill="#263238"/>
<g opacity="0.3">
<path opacity="0.3" d="M133.339 83.1992C132.744 88.9506 134.953 95.0241 139.611 98.5081C139.975 98.7835 140.437 99.0506 140.865 98.898C141.165 98.792 141.358 98.5081 141.516 98.2326C142.843 95.9566 143.289 93.4433 142.908 90.8409C142.171 92.7651 141.538 94.6512 140.793 96.6644C136.73 94.2273 134.199 89.0396 133.339 83.1992Z" fill="black"/>
</g>
<path opacity="0.3" d="M149.115 96.2792L152.536 95.0416L153.101 100.768C153.101 100.768 156.792 94.1092 158.32 91.0703C159.848 88.0314 159.061 82.6699 159.061 82.6699C159.061 82.6699 159.609 87.3406 155.91 93.2954L153.118 97.788V93.0835L149.115 96.2792Z" fill="black"/>
<g opacity="0.3">
<path opacity="0.3" d="M109.334 125.382C107.81 124.67 106.055 124.573 104.381 124.768C102.612 124.971 100.836 125.509 99.4485 126.616C98.0614 127.722 97.1238 129.468 97.2951 131.223L97.4663 131.248C98.6608 128.052 101.033 125.726 104.094 125.442C107.155 125.162 110.139 126.51 112.241 128.731C112.035 127.069 110.862 126.094 109.334 125.382Z" fill="black"/>
</g>
<g opacity="0.3">
<path opacity="0.3" d="M195.811 128.649C194.664 127.424 193.054 126.682 191.393 126.394C188.477 125.89 185.348 126.788 183.151 128.755L183.802 128.229C185.459 127.267 187.368 126.699 189.291 126.754C191.209 126.809 193.131 127.513 194.522 128.822C195.802 130.026 196.569 131.658 197.301 133.247C197.592 131.607 196.958 129.874 195.811 128.649Z" fill="black"/>
</g>
<path d="M173.767 102.057C173.754 102.052 173.81 101.887 173.921 101.595C174.054 101.26 174.216 100.849 174.409 100.361C174.824 99.323 175.39 97.8862 175.993 96.2926C176.593 94.6947 177.111 93.241 177.483 92.1856C177.659 91.694 177.808 91.2786 177.928 90.9396C178.035 90.6471 178.104 90.4861 178.117 90.4903C178.13 90.4946 178.091 90.6641 178.01 90.965C177.928 91.2659 177.8 91.7025 177.633 92.2365C177.299 93.3046 176.802 94.771 176.203 96.3689C175.604 97.9667 175.009 99.395 174.559 100.421C174.332 100.934 174.144 101.345 174.007 101.629C173.865 101.908 173.78 102.065 173.767 102.057Z" fill="#263238"/>
<path d="M119.793 102.471C119.733 102.484 119.266 100.466 118.753 97.9657C118.239 95.4651 117.871 93.4307 117.931 93.418C117.991 93.4053 118.457 95.4227 118.971 97.9234C119.485 100.424 119.853 102.458 119.793 102.471Z" fill="#263238"/>
<path d="M118.984 127.686C119.121 127.754 117.417 114.479 117.417 114.479C117.417 114.479 118.492 104.405 119.095 103.938L119.112 100.382C119.112 100.382 120.778 99.3822 121.223 100.997C121.223 100.997 122.7 99.7297 122.957 102.747C123.214 105.769 123.269 108.855 123.269 108.855L126.553 116.984L127.093 117.255C127.093 117.255 127.799 110.885 128.21 109.948C128.621 109.012 128.904 106.731 130.458 107.075C132.016 107.418 132.145 108.694 131.866 110.771C131.588 112.847 131.237 114.992 131.37 116.335C131.498 117.679 132.115 120.633 131.926 122.977C131.738 125.325 130.441 127.8 129.075 129.538C127.713 131.276 125.11 134.87 123.693 135.955C123.197 136.336 118.984 127.686 118.984 127.686Z" fill="#FFBE9D"/>
<path d="M120.645 116.883C120.628 116.883 120.632 116.679 120.654 116.315C120.684 115.908 120.718 115.391 120.761 114.772C120.859 113.471 121.013 111.674 121.197 109.69C121.292 108.703 121.381 107.758 121.463 106.897C121.506 106.469 121.531 106.067 121.476 105.698C121.424 105.329 121.279 105.011 121.065 104.782C120.632 104.316 120.071 104.198 119.725 104.202C119.361 104.198 119.172 104.295 119.164 104.274C119.159 104.265 119.207 104.244 119.296 104.206C119.391 104.172 119.532 104.13 119.72 104.117C120.088 104.092 120.688 104.185 121.18 104.681C121.424 104.927 121.595 105.283 121.655 105.673C121.724 106.067 121.698 106.486 121.664 106.919C121.587 107.783 121.501 108.724 121.416 109.716C121.232 111.699 121.052 113.492 120.915 114.789C120.842 115.404 120.782 115.921 120.735 116.323C120.692 116.684 120.658 116.883 120.645 116.883Z" fill="#EB996E"/>
<path d="M122.409 111.454C122.443 111.479 122.075 111.797 121.827 112.501C121.561 113.192 121.467 114.234 121.279 115.366C121.103 116.502 120.928 117.527 120.795 118.265C120.658 119.007 120.56 119.46 120.53 119.456C120.5 119.452 120.542 118.985 120.641 118.239C120.735 117.493 120.885 116.464 121.06 115.328C121.245 114.2 121.364 113.153 121.681 112.437C121.831 112.081 122.011 111.823 122.156 111.662C122.298 111.509 122.4 111.445 122.409 111.454Z" fill="#EB996E"/>
<path d="M121.202 100.822C121.219 100.818 121.257 100.966 121.317 101.242C121.377 101.513 121.45 101.907 121.531 102.399C121.694 103.378 121.874 104.739 121.989 106.252C122.101 107.765 122.126 109.138 122.109 110.13C122.101 110.626 122.088 111.028 122.066 111.304C122.049 111.579 122.032 111.732 122.015 111.732C121.981 111.732 121.977 111.117 121.951 110.13C121.925 109.138 121.878 107.773 121.767 106.269C121.655 104.764 121.501 103.403 121.377 102.42C121.253 101.433 121.172 100.827 121.202 100.822Z" fill="#EB996E"/>
<path d="M130.676 113.265C130.71 113.316 130.197 113.549 129.571 113.358C128.942 113.172 128.651 112.693 128.707 112.671C128.758 112.629 129.083 112.989 129.636 113.15C130.184 113.32 130.659 113.201 130.676 113.265Z" fill="#EB996E"/>
<path d="M119.168 126.031L110.49 129.642H105.318C105.318 129.642 100.206 131.223 99.4186 135.966C98.6309 140.713 98.5195 143.154 100.767 143.739C103.015 144.324 109.364 144.392 112.511 143.358C115.657 142.323 123.903 135.737 123.903 135.737L124.699 130.973L119.168 126.031Z" fill="#FFBE9D"/>
<path d="M121.202 131.279C121.189 131.287 121.103 131.211 120.953 131.054C120.799 130.906 120.611 130.66 120.388 130.347C119.96 129.711 119.489 128.749 119.177 127.63C118.851 126.511 118.714 125.464 118.641 124.71C118.577 123.955 118.577 123.485 118.607 123.48C118.641 123.476 118.693 123.942 118.796 124.688C118.907 125.434 119.07 126.464 119.386 127.566C119.695 128.672 120.131 129.618 120.517 130.262C120.915 130.902 121.232 131.249 121.202 131.279Z" fill="#EB996E"/>
<path d="M124.982 132.786C124.935 132.769 125.324 132.116 125.474 130.942C125.547 130.362 125.539 129.654 125.372 128.895C125.205 128.136 124.841 127.357 124.31 126.628C123.783 125.894 123.188 125.259 122.692 124.644C122.186 124.029 121.784 123.432 121.518 122.889C121.253 122.347 121.129 121.868 121.082 121.533C121.039 121.198 121.056 121.012 121.069 121.012C121.112 121.003 121.099 121.77 121.66 122.817C121.934 123.339 122.345 123.915 122.85 124.513C123.355 125.114 123.954 125.75 124.494 126.496C125.038 127.238 125.419 128.06 125.577 128.844C125.74 129.628 125.727 130.362 125.633 130.955C125.539 131.553 125.372 132.014 125.235 132.32C125.17 132.472 125.106 132.587 125.059 132.663C125.012 132.752 124.986 132.79 124.982 132.786Z" fill="#EB996E"/>
<path d="M111.603 112.102C111.547 112.131 110.601 110.423 109.488 108.291C108.375 106.159 107.519 104.409 107.57 104.379C107.626 104.35 108.572 106.058 109.685 108.19C110.798 110.321 111.659 112.072 111.603 112.102Z" fill="white"/>
<path d="M125.637 96.6373C125.581 96.6119 126.168 95.192 126.943 93.4628C127.722 91.7336 128.398 90.3519 128.454 90.3773C128.51 90.4027 127.923 91.8226 127.148 93.5518C126.369 95.2811 125.693 96.6627 125.637 96.6373Z" fill="white"/>
<path d="M139.38 106.674C139.333 106.712 138.451 105.737 137.415 104.495C136.374 103.253 135.574 102.215 135.621 102.177C135.668 102.139 136.55 103.114 137.586 104.355C138.622 105.597 139.427 106.636 139.38 106.674Z" fill="white"/>
<path d="M136.216 120.476C136.165 120.442 136.828 119.451 137.697 118.264C138.566 117.077 139.311 116.145 139.358 116.183C139.41 116.217 138.746 117.208 137.877 118.395C137.012 119.582 136.267 120.514 136.216 120.476Z" fill="white"/>
<path d="M131.96 139.978C131.935 139.991 131.738 139.668 131.459 139.126C131.177 138.583 130.813 137.825 130.449 136.973C130.081 136.117 129.786 135.333 129.584 134.756C129.387 134.18 129.285 133.815 129.315 133.807C129.345 133.798 129.499 134.142 129.734 134.701C130.004 135.337 130.312 136.074 130.655 136.888C131.006 137.698 131.327 138.427 131.605 139.062C131.845 139.613 131.99 139.961 131.96 139.978Z" fill="white"/>
<path d="M144.051 131.687C144.038 131.746 142.873 131.572 141.452 131.301C140.026 131.03 138.883 130.758 138.896 130.699C138.909 130.64 140.073 130.814 141.495 131.085C142.92 131.356 144.063 131.627 144.051 131.687Z" fill="white"/>
<path d="M153.431 113.467C153.384 113.424 154.497 112.17 155.91 110.657C157.323 109.148 158.509 107.957 158.551 107.999C158.598 108.042 157.485 109.296 156.073 110.809C154.655 112.318 153.474 113.509 153.431 113.467Z" fill="white"/>
<path d="M162.863 137.766C162.815 137.804 161.433 136.219 159.772 134.223C158.11 132.227 156.805 130.578 156.852 130.54C156.899 130.502 158.282 132.087 159.943 134.083C161.604 136.079 162.91 137.728 162.863 137.766Z" fill="white"/>
<path d="M104.304 127.411C104.333 127.471 103.071 128.106 101.692 129.153C100.309 130.192 99.3544 131.234 99.303 131.188C99.2816 131.171 99.4914 130.887 99.8853 130.467C100.275 130.052 100.857 129.509 101.555 128.98C102.253 128.454 102.938 128.043 103.447 127.776C103.957 127.513 104.291 127.386 104.304 127.411Z" fill="white"/>
<path d="M107.831 118.044C107.883 118.078 107.433 118.837 106.825 119.739C106.217 120.642 105.686 121.346 105.635 121.312C105.584 121.278 106.033 120.519 106.641 119.617C107.245 118.714 107.78 118.01 107.831 118.044Z" fill="white"/>
<path d="M115.777 127.241C115.73 127.271 115.281 126.529 115.05 125.499C114.81 124.473 114.891 123.613 114.947 123.617C115.015 123.617 115.037 124.452 115.268 125.448C115.49 126.448 115.837 127.211 115.777 127.241Z" fill="white"/>
<path d="M116.955 98.0296C116.963 98.089 116.227 98.2458 115.306 98.3729C114.386 98.5043 113.632 98.5594 113.624 98.5001C113.615 98.4408 114.352 98.284 115.272 98.1568C116.193 98.0254 116.946 97.9703 116.955 98.0296Z" fill="white"/>
<path d="M122.923 87.5502C122.953 87.6053 122.306 88.0164 121.48 88.4699C120.654 88.9234 119.956 89.2498 119.926 89.1947C119.896 89.1396 120.542 88.7285 121.369 88.275C122.199 87.8215 122.893 87.4993 122.923 87.5502Z" fill="white"/>
<path d="M139.71 91.9798C139.662 92.018 138.922 91.1364 138.057 90.0132C137.192 88.8901 136.533 87.9534 136.584 87.9153C136.631 87.8771 137.372 88.7587 138.237 89.8818C139.097 91.0008 139.761 91.9417 139.71 91.9798Z" fill="white"/>
<path d="M161.017 102.515C160.975 102.553 160.195 101.76 159.476 100.607C158.748 99.4546 158.376 98.4162 158.427 98.395C158.487 98.3696 158.949 99.3571 159.664 100.493C160.379 101.629 161.069 102.472 161.017 102.515Z" fill="white"/>
<path d="M169.152 105.168C169.207 105.194 168.814 106.177 168.27 107.36C167.726 108.546 167.242 109.487 167.182 109.462C167.127 109.436 167.521 108.453 168.064 107.271C168.608 106.084 169.096 105.143 169.152 105.168Z" fill="white"/>
<path d="M170.29 94.1792C170.243 94.2174 169.276 93.1451 168.128 91.7803C166.981 90.4156 166.091 89.2755 166.138 89.2373C166.185 89.1992 167.152 90.2715 168.3 91.6362C169.443 93.0052 170.338 94.1411 170.29 94.1792Z" fill="white"/>
<path d="M157.866 85.2525C157.806 85.2567 157.716 84.337 157.674 83.1969C157.627 82.061 157.644 81.1371 157.704 81.1328C157.764 81.1286 157.853 82.0483 157.896 83.1884C157.943 84.3285 157.931 85.2525 157.866 85.2525Z" fill="white"/>
<path d="M167.996 84.6961C168.004 84.7555 166.818 84.9631 165.354 85.1581C163.886 85.3531 162.691 85.459 162.683 85.3997C162.674 85.3404 163.856 85.1327 165.324 84.9377C166.789 84.7428 167.987 84.6368 167.996 84.6961Z" fill="white"/>
<path d="M183.948 96.2985C183.892 96.324 183.181 94.9804 182.355 93.2978C181.533 91.6152 180.908 90.225 180.964 90.1996C181.019 90.1741 181.73 91.5177 182.556 93.2003C183.378 94.8829 184.003 96.2731 183.948 96.2985Z" fill="white"/>
<path d="M181.259 106.32C181.199 106.307 181.366 105.227 181.632 103.908C181.897 102.586 182.162 101.526 182.222 101.539C182.282 101.552 182.115 102.633 181.85 103.951C181.585 105.269 181.323 106.333 181.259 106.32Z" fill="white"/>
<path d="M188.661 114.219C188.601 114.241 188.036 112.783 187.39 110.964C186.748 109.146 186.272 107.654 186.332 107.633C186.392 107.612 186.957 109.07 187.604 110.888C188.246 112.711 188.717 114.198 188.661 114.219Z" fill="white"/>
<path d="M187.63 118.844C187.617 118.899 186.594 118.688 185.468 118.077C184.337 117.475 183.597 116.742 183.64 116.704C183.682 116.653 184.47 117.297 185.575 117.886C186.671 118.476 187.651 118.781 187.63 118.844Z" fill="white"/>
<path d="M197.108 129.381C197.053 129.407 196.71 128.762 196.342 127.944C195.974 127.126 195.721 126.444 195.777 126.419C195.833 126.393 196.175 127.037 196.543 127.855C196.911 128.673 197.164 129.356 197.108 129.381Z" fill="white"/>
<path d="M141.127 144.079C141.067 144.088 140.917 143.245 140.793 142.202C140.669 141.159 140.621 140.307 140.681 140.299C140.741 140.29 140.891 141.134 141.015 142.176C141.139 143.219 141.187 144.071 141.127 144.079Z" fill="white"/>
<path d="M170.209 143.35C170.149 143.338 170.273 142.516 170.487 141.515C170.702 140.515 170.924 139.714 170.984 139.727C171.044 139.739 170.92 140.562 170.706 141.562C170.492 142.562 170.269 143.363 170.209 143.35Z" fill="white"/>
<path d="M175.783 59.3025L179.542 52.7416C177.877 50.0672 176.918 46.9223 176.918 43.5529C176.918 33.8598 184.855 26.002 194.647 26.002C204.438 26.002 212.375 33.8598 212.375 43.5529C212.375 53.2459 204.438 61.1038 194.647 61.1038C190.558 61.1038 186.795 59.7306 183.798 57.4291L183.802 57.4376L175.783 59.3025Z" fill="#FAFAFA"/>
<path d="M175.783 59.2982C176.164 59.2135 178.703 58.637 183.815 57.48L183.896 57.463L183.845 57.3952L183.841 57.3867L183.764 57.463C184.774 58.2386 185.986 59.0015 187.411 59.6415C188.837 60.2688 190.472 60.7774 192.275 61.0148C193.174 61.1292 194.116 61.2012 195.083 61.1546C195.567 61.1292 196.059 61.1165 196.556 61.0741C197.048 61.002 197.549 60.9257 198.054 60.8495C200.062 60.4553 202.113 59.7009 204.031 58.5268C205.945 57.3528 207.717 55.7635 209.139 53.8096C210.556 51.8557 211.63 49.5416 212.135 47.0283C212.632 44.5149 212.594 41.8236 211.926 39.217C211.254 36.6189 209.999 34.0844 208.124 31.9992L207.4 31.2108C207.161 30.9438 206.878 30.7277 206.621 30.4818C206.352 30.253 206.107 29.9902 205.816 29.7868L204.964 29.1552C204.69 28.9349 204.386 28.7568 204.082 28.5788C203.783 28.3966 203.483 28.2186 203.183 28.0363C202.867 27.8837 202.554 27.7354 202.241 27.5828C201.925 27.4387 201.621 27.2692 201.291 27.1632C198.714 26.1503 195.969 25.7646 193.341 25.9553C190.712 26.1418 188.199 26.8877 186.046 28.0914C183.883 29.2824 182.06 30.876 180.651 32.6519C179.238 34.432 178.245 36.3901 177.629 38.3439C177.016 40.3063 176.849 42.2517 176.858 44.053C176.909 45.8585 177.243 47.5242 177.727 48.9821C178.211 50.4444 178.849 51.7031 179.504 52.7585V52.7076C177.128 56.9205 175.967 58.9761 175.783 59.2982C175.972 58.9761 177.158 56.9375 179.589 52.7627L179.606 52.7373L179.589 52.7119C178.943 51.6565 178.318 50.402 177.843 48.9482C177.372 47.4945 177.046 45.8458 177.003 44.053C177.003 42.2644 177.175 40.3402 177.787 38.399C178.403 36.4664 179.392 34.5294 180.792 32.7705C182.188 31.0159 183.995 29.4435 186.135 28.2694C188.267 27.0827 190.755 26.3495 193.349 26.1672C195.944 25.985 198.658 26.3664 201.201 27.3667C201.527 27.4684 201.826 27.6379 202.139 27.782C202.447 27.9304 202.76 28.0787 203.068 28.2313C203.363 28.4093 203.659 28.5873 203.958 28.7653C204.258 28.9433 204.558 29.1171 204.827 29.3375L205.667 29.9605C205.953 30.1597 206.193 30.4183 206.459 30.6471C206.711 30.8887 206.994 31.1049 207.229 31.3677L207.944 32.1475C209.798 34.2073 211.035 36.7122 211.699 39.2764C212.358 41.849 212.401 44.5107 211.913 46.9944C211.416 49.478 210.359 51.771 208.959 53.6994C207.559 55.6363 205.808 57.213 203.915 58.3743C202.023 59.544 199.994 60.2942 198.007 60.6884C197.506 60.7647 197.01 60.841 196.526 60.913C196.034 60.9554 195.546 60.9681 195.07 60.9978C194.111 61.0487 193.178 60.9766 192.288 60.8664C190.498 60.6375 188.875 60.1374 187.458 59.5229C186.041 58.8956 184.834 58.1454 183.824 57.3825L183.494 57.1324L183.746 57.4588L183.751 57.4673L183.781 57.3825C178.695 58.5989 176.164 59.2092 175.783 59.2982Z" fill="#263238"/>
<path d="M199.433 42.82C199.433 43.7652 200.208 44.5366 201.167 44.5366C202.126 44.5366 202.901 43.7694 202.901 42.82C202.901 41.8749 202.126 41.1035 201.167 41.1035C200.208 41.1035 199.433 41.8749 199.433 42.82Z" fill="#263238"/>
<path d="M192.502 42.82C192.502 43.7652 193.277 44.5366 194.236 44.5366C195.195 44.5366 195.969 43.7694 195.969 42.82C195.969 41.8749 195.195 41.1035 194.236 41.1035C193.277 41.1035 192.502 41.8749 192.502 42.82Z" fill="#263238"/>
<path d="M185.587 41.9658C185.108 42.788 185.395 43.8349 186.221 44.3096C187.052 44.7843 188.109 44.5003 188.589 43.6823C189.068 42.8601 188.781 41.8132 187.955 41.3385C187.124 40.8638 186.063 41.1435 185.587 41.9658Z" fill="#263238"/>
</svg>
